<svg xmlns="http://www.w3.org/2000/svg" viewBox="0 0 1284 1125" width="1284" height="1125">
	<style>
		tspan { white-space:pre }
		.shp0 { fill: #f0767a } 
		.shp1 { fill: #ebb0b9 } 
		.shp2 { fill: #f8fafa } 
	</style>
	<g id="Background">
		<path id="Path 0" class="shp0" d="M0 20.25L-0.01 40.5C31 9.5 40 0.39 40 0.25C40 0.11 31 0 20 0L0 0L0 20.25Z" />
		<path id="Path 1" class="shp1" d="M19.78 20.47L-0.05 40.5C30.26 70.72 38.93 80.05 38.78 80.71C38.63 81.38 29.84 90.72 19.25 101.46L0 121C30.23 151.22 39 160.56 39 161.25C38.99 161.94 30.21 171.28 19.48 182L-0.03 201.5L40 241.5L0 281.5C30.22 311.73 38.99 320.95 38.99 321.5C38.99 322.05 30.22 331.27 19.5 342L0 361.5C30.23 391.73 39 400.95 39 401.5C39 402.05 30.11 411.34 19.25 422.14L-0.5 441.78C30.08 471.79 38.96 481.18 38.97 482C38.98 482.82 30.1 492.2 19.24 502.84L-0.5 522.17L40 562.5L0 602.5C30.22 632.73 38.99 641.95 38.99 642.5C38.99 643.05 30.22 652.27 19.5 663L0 682.5L40 722.5L-0.05 762.5C30.19 792.73 38.98 802.06 38.99 802.75C38.99 803.44 30.2 812.89 19.44 823.75L-0.13 843.5L40 883.5L0 923.5C30.22 953.73 38.99 962.95 38.99 963.5C38.99 964.05 30.22 973.27 19.5 984L0 1003.5L40 1043.5L-0.08 1083.5L40.5 1124.5C70.73 1093.87 79.95 1084.98 80.5 1084.98C81.05 1084.98 90.28 1093.87 101 1104.74L120.5 1124.5L160.5 1083.95L200.5 1124.5C230.72 1093.87 239.95 1084.98 240.5 1084.98C241.05 1084.98 250.29 1093.87 261.04 1104.74L280.58 1124.5C310.74 1093.85 320.18 1084.96 321 1084.97C321.82 1084.98 330.93 1093.42 341.23 1103.74C351.54 1114.06 359.97 1123.06 359.98 1123.75C359.99 1124.44 360.11 1125.01 360.25 1125.02C360.39 1125.03 369.5 1116.02 380.5 1105.01C391.5 1093.99 400.95 1084.98 401.5 1084.98C402.05 1084.98 411.27 1093.87 422 1104.74L441.5 1124.5L481.5 1083.95L521.5 1124.5C551.73 1093.87 560.95 1084.98 561.5 1084.98C562.05 1084.98 571.3 1093.87 582.06 1104.74L601.62 1124.5C631.75 1093.84 641.17 1084.94 642 1084.94C642.83 1084.94 652.25 1093.84 662.94 1104.72L682.38 1124.5C712.7 1093.87 721.95 1084.98 722.5 1084.98C723.05 1084.98 732.27 1093.87 743 1104.74L762.5 1124.5L802.5 1083.95L842.5 1124.5C872.73 1093.87 881.95 1084.98 882.5 1084.98C883.05 1084.98 892.5 1093.99 903.5 1105.01C914.5 1116.02 923.61 1125.03 923.75 1125.02C923.89 1125.01 924.01 1124.44 924.02 1123.75C924.03 1123.06 932.46 1114.06 942.77 1103.74C953.07 1093.42 962.17 1084.98 963 1084.97C963.83 1084.96 973.26 1093.85 983.96 1104.73L1003.42 1124.5C1033.71 1093.87 1042.95 1084.98 1043.5 1084.98C1044.05 1084.98 1053.28 1093.87 1064 1104.74L1083.5 1124.5L1123.5 1083.95L1163.5 1124.5C1193.72 1093.87 1202.95 1084.98 1203.5 1084.98C1204.05 1084.98 1213.27 1093.87 1224 1104.74L1243.5 1124.5L1284.08 1083.5L1244 1043.5L1284 1003.5C1253.78 973.27 1245.01 964.05 1245.01 963.5C1245.01 962.95 1253.78 953.73 1264.5 943L1284 923.5L1244 883.5L1284.13 843.5C1253.8 812.89 1245.01 803.44 1245.01 802.75C1245.02 802.06 1253.81 792.73 1264.54 782L1284.05 762.5L1244 722.5L1284 682.5C1253.78 652.27 1245.01 643.05 1245.01 642.5C1245.01 641.95 1253.78 632.73 1264.5 622L1284 602.5L1244 562.5L1284.5 522.17C1253.9 492.2 1245.01 482.82 1245.01 482C1245.01 481.18 1253.9 471.79 1264.76 461.15L1284.5 441.8C1253.89 411.34 1245 402.05 1245 401.5C1245 400.95 1253.77 391.73 1264.5 381L1284 361.5C1253.78 331.27 1245.01 322.05 1245.01 321.5C1245.01 320.95 1253.78 311.73 1264.5 301L1284 281.5L1244 241.5L1284.03 201.5C1253.79 171.28 1245.01 161.94 1245 161.25C1245 160.56 1253.78 151.22 1264.5 140.5L1284 121C1254.16 90.72 1245.37 81.38 1245.22 80.71C1245.07 80.05 1253.74 70.72 1264.5 60L1284.05 40.5L1243.52 0.43C1213.28 31.11 1204.28 40.03 1204 40.03C1203.72 40.03 1194.52 31.11 1183.54 20.2L1163.57 0.37C1133.29 31.11 1124.05 40.03 1123.5 40.03C1122.95 40.02 1113.65 31.13 1102.84 20.26L1083.18 0.5C1052.43 31.14 1043.28 40.03 1043 40.03C1042.72 40.02 1033.52 31.12 1022.55 20.23L1002.61 0.44L963 40.5L922.51 0.44C892.28 31.12 883.27 40.02 883 40.01C882.73 40.01 873.6 31.12 862.71 20.25L842.92 0.5C812.37 31.13 803.05 40.03 802.5 40.03C801.95 40.03 792.57 31.1 781.65 20.18L761.79 0.31C731.34 31.1 722.27 40.03 722 40.03C721.73 40.03 712.52 31.12 701.56 20.23L681.61 0.44L642 40.5L601.51 0.44C571.28 31.12 562.27 40.03 562 40.03C561.73 40.03 552.52 31.1 541.54 20.18L521.58 0.31C491.29 31.1 482.05 40.03 481.5 40.03C480.95 40.03 471.53 31.12 460.56 20.24L440.61 0.46C410.44 31.1 401.41 40 401.09 40.01C400.77 40.02 391.53 31.12 380.56 20.23L360.61 0.44L321 40.5L280.51 0.44C250.28 31.12 241.28 40.02 241 40.03C240.72 40.03 231.57 31.14 220.66 20.27L200.82 0.5C170.35 31.13 160.96 40.02 160.3 40.01C159.64 40 150.23 31.08 139.4 20.18L119.7 0.37C89.32 31.11 80.28 40.03 80 40.03C79.72 40.03 70.53 31.11 59.56 20.23L39.61 0.43L19.78 20.47Z" />
		<path id="Path 2" class="shp2" d="M41 0.75C41 1.16 49.66 10.16 60.25 20.75C70.84 31.33 79.95 39.93 80.5 39.85C81.05 39.76 90.23 30.77 100.9 19.85L120.29 0C58.84 0 41 0.34 41 0.75Z" />
		<path id="Path 3" class="shp0" d="M121.02 0.75C121.03 1.16 129.69 10.17 140.27 20.76C150.85 31.35 159.95 40.02 160.5 40.01C161.05 40.01 170.16 31.34 180.75 20.75C191.33 10.16 200 1.16 200 0.75C200 0.34 182.22 0 160.5 0C138.78 0 121.01 0.34 121.02 0.75Z" />
		<path id="Path 4" class="shp2" d="M203 2.61C204.38 4.07 211.21 10.94 218.18 17.88C225.16 24.82 233.15 32.75 235.95 35.5L241.03 40.5C271.24 10.27 280 1.16 280 0.75C280 0.34 262.11 -0.01 240.25 -0.03L200.5 -0.05L203 2.61Z" />
		<path id="Path 5" class="shp0" d="M300.75 20.25L321 40.5L361.49 0L280.5 0L300.75 20.25Z" />
		<path id="Path 6" class="shp2" d="M362 0.75C362 1.16 370.76 10.27 381.48 21L400.97 40.5C423.86 18.02 432.98 8.9 436 5.72L441.5 -0.06C379.89 -0.01 362 0.34 362 0.75Z" />
		<path id="Path 7" class="shp0" d="M442 0.75C442 1.16 450.66 10.16 461.25 20.75C471.84 31.33 480.95 40 481.5 40.01C482.05 40.02 491.15 31.36 501.71 20.76C512.28 10.17 520.94 1.16 520.96 0.75C520.98 0.34 503.23 0 481.5 0C459.77 0 442 0.34 442 0.75Z" />
		<path id="Path 8" class="shp2" d="M541 19.84C551.73 30.76 560.95 39.77 561.5 39.85C562.05 39.94 571.16 31.34 581.75 20.75C592.33 10.16 601 1.16 601 0.75C601 0.34 583.11 0 561.25 -0.01L521.5 -0.02L541 19.84Z" />
		<path id="Path 9" class="shp0" d="M621.75 20.25L642 40.5L682.49 0L601.5 0L621.75 20.25Z" />
		<path id="Path 10" class="shp2" d="M683 0.75C683 1.16 691.66 10.16 702.25 20.75C712.84 31.33 721.95 39.93 722.5 39.85C723.05 39.76 732.23 30.77 742.9 19.85L762.29 0C700.84 0 683 0.34 683 0.75Z" />
		<path id="Path 11" class="shp0" d="M763.04 0.75C763.06 1.16 771.72 10.17 782.29 20.76C792.85 31.36 801.95 40.02 802.5 40.02C803.05 40.01 812.16 31.34 822.75 20.75C833.33 10.16 842 1.16 842 0.75C842 0.34 824.23 0 802.5 0C780.77 0 763.02 0.34 763.04 0.75Z" />
		<path id="Path 12" class="shp2" d="M848 5.72C851.02 8.9 860.14 18.02 868.26 26L883.03 40.5C913.24 10.27 922 1.16 922 0.75C922 0.34 904.11 -0.01 882.25 -0.03L842.5 -0.06L848 5.72Z" />
		<path id="Path 13" class="shp0" d="M942.75 20.25L963 40.5L1003.49 0L922.5 0L942.75 20.25Z" />
		<path id="Path 14" class="shp2" d="M1004 0.75C1004 1.16 1012.76 10.27 1023.48 21L1042.97 40.5C1050.85 32.75 1058.84 24.82 1065.82 17.88C1072.79 10.94 1079.63 4.07 1081 2.61L1083.5 -0.05C1021.89 -0.01 1004 0.34 1004 0.75Z" />
		<path id="Path 15" class="shp0" d="M1084 0.75C1084 1.16 1092.66 10.16 1103.25 20.75C1113.84 31.33 1122.95 40 1123.5 40.01C1124.05 40.01 1133.15 31.35 1143.73 20.76C1154.31 10.17 1162.97 1.16 1162.98 0.75C1162.99 0.34 1145.22 0 1123.5 0C1101.78 0 1084 0.34 1084 0.75Z" />
		<path id="Path 16" class="shp2" d="M1183 19.84C1193.72 30.76 1202.95 39.77 1203.5 39.85C1204.05 39.94 1213.16 31.34 1223.75 20.75C1234.33 10.16 1243 1.16 1243 0.75C1243 0.34 1225.11 0 1203.25 -0.01L1163.5 -0.02L1183 19.84Z" />
		<path id="Path 17" class="shp0" d="M1263.5 20C1274.5 31 1283.61 40 1283.75 40C1283.89 40 1284 31 1284 20L1284 0L1243.5 -0.01L1263.5 20Z" />
		<path id="Path 18" class="shp2" d="M140.5 61L120.5 81.01L160.5 121.01L200.5 80.99L160.49 40.99L140.5 61ZM300.69 60.75L280.9 80.5C311.22 110.72 320.45 119.5 320.98 119.5C321.5 119.5 330.73 110.72 341.48 100L361.03 80.5C330.39 49.87 321.27 40.98 320.99 40.99C320.71 41 311.57 49.89 300.69 60.75ZM461.5 61L441.5 81.01L481.5 121.01L521.5 80.99L481.49 40.99L461.5 61ZM622 60.26C611.28 70.85 602.63 79.96 602.76 80.51C602.89 81.05 611.77 90.28 622.5 101L642 120.5C672.23 90.28 681.01 81.05 681.01 80.5C681.01 79.95 672.34 70.84 661.75 60.25C651.16 49.67 642.27 41 641.99 41C641.71 41 632.71 49.67 622 60.26ZM782.5 61L762.5 81.01L802.5 121.01L842.5 80.99L802.49 40.99L782.5 61ZM942.7 60.75L922.97 80.5C953.27 110.72 962.5 119.5 963.02 119.5C963.55 119.5 972.78 110.72 983.54 100L1003.1 80.5C972.41 49.88 963.26 41 962.97 41C962.67 41 953.55 49.89 942.7 60.75ZM1103.5 61L1083.5 81.01L1123.5 121.01L1163.5 80.99L1123.49 40.99L1103.5 61ZM0 81C0 102.45 0.34 119.88 0.75 119.74C1.16 119.59 9.93 110.93 20.24 100.49C30.55 90.04 38.98 81.05 38.99 80.5C39 79.95 30.57 71.06 20.25 60.75C9.94 50.44 1.16 42 0.75 42C0.34 42 0 59.55 0 81Z" />
		<path id="Path 19" class="shp0" d="M60 60.96C49.74 71.4 41.27 80.28 41.17 80.71C41.07 81.15 49.66 90.16 60.25 100.75C70.84 111.33 80 120 80.62 120C81.24 120 90.46 111.23 101.12 100.51L120.5 81.02C90.28 50.78 80.86 42 80.08 42C79.3 42 70.26 50.53 60 60.96ZM219.99 61.48L200.5 80.95C230.72 111.23 239.95 120.02 240.5 120.01C241.05 120 250.16 111.33 260.75 100.75C271.34 90.16 280 81.16 280 80.75C280 80.34 271.45 71.45 261 61C250.55 50.55 241.43 42 240.74 42C240.05 42 230.71 50.76 219.99 61.48ZM381 60.88C370.42 71.27 361.82 80.15 361.88 80.63C361.94 81.11 370.66 90.16 381.25 100.75C391.84 111.33 400.95 119.99 401.5 119.99C402.05 119.99 411.27 111.21 422 100.48L441.5 80.98C411.27 50.77 401.99 42 401.37 42C400.75 42 391.58 50.5 381 60.88ZM540.99 61.51L521.5 81.02C551.73 111.21 560.95 119.98 561.5 119.98C562.05 119.99 571.16 111.33 581.75 100.75C592.34 90.16 600.99 81.05 600.97 80.5C600.95 79.95 592.29 71.05 581.72 60.71C571.15 50.38 562.05 41.94 561.49 41.96C560.93 41.98 551.71 50.78 540.99 61.51ZM702 60.84C691.41 71.21 682.8 80.09 682.87 80.59C682.94 81.09 691.66 90.16 702.25 100.75C712.84 111.33 722 120 722.62 120C723.24 120 732.46 111.23 743.12 100.51L762.5 81.02C732.27 50.78 723 42 722.39 42C721.77 42 712.6 50.48 702 60.84ZM861.99 61.49L842.5 80.98C872.73 111.21 881.95 119.99 882.5 119.99C883.05 119.99 892.16 111.33 902.75 100.75C913.34 90.16 922 81.16 922 80.75C922 80.34 913.34 71.43 902.75 60.96C892.16 50.49 883.05 41.94 882.49 41.96C881.93 41.98 872.71 50.77 861.99 61.49ZM1023 61C1012.58 71.45 1004.04 80.34 1004.02 80.75C1004.01 81.16 1012.66 90.16 1023.25 100.75C1033.84 111.33 1042.95 120 1043.5 120.01C1044.05 120.02 1053.28 111.23 1064 100.49L1083.5 80.95C1053.28 50.76 1043.93 42 1043.23 42C1042.52 42 1033.42 50.55 1023 61ZM1182.99 61.51L1163.5 81.02C1193.72 111.21 1202.95 119.98 1203.5 119.98C1204.05 119.99 1213.16 111.33 1223.75 100.75C1234.34 90.16 1243 81.16 1243 80.75C1243 80.34 1234.56 71.46 1224.25 61.03C1213.94 50.59 1204.82 42.04 1203.99 42.03C1203.16 42.01 1193.71 50.78 1182.99 61.51Z" />
		<path id="Path 20" class="shp2" d="M1263.5 60.76C1253.06 71.08 1244.63 79.96 1244.77 80.51C1244.91 81.05 1253.45 90.04 1263.76 100.49C1274.07 110.93 1282.84 119.59 1283.25 119.74C1283.66 119.88 1284 102.45 1284 81C1284 59.55 1283.66 42 1283.24 42C1282.82 42 1273.94 50.44 1263.5 60.76Z" />
		<path id="Path 21" class="shp0" d="M0 161C0 182.45 0.34 200 0.75 200.01C1.16 200.02 9.93 191.58 20.23 181.26C30.53 170.94 38.97 161.94 38.98 161.25C38.99 160.56 30.45 151.45 20 141C9.55 130.55 0.77 122 0.5 122C0.23 122 0 139.55 0 161Z" />
		<path id="Path 22" class="shp2" d="M60 141.26C49.28 151.85 40.62 160.74 40.74 161.01C40.86 161.28 49.86 170.38 60.73 181.24L80.5 200.98L120.5 161.01C90.28 130.77 81.05 122 80.49 122C79.93 122 70.71 130.67 60 141.26Z" />
		<path id="Path 23" class="shp0" d="M140 141.26C129.28 151.85 120.69 160.96 120.91 161.51C121.13 162.05 130.12 171.15 140.9 181.73L160.5 200.95C191.14 170.38 200.03 161.28 200.02 161C200.01 160.72 191.34 151.84 180.75 141.25C170.16 130.67 161.05 122 160.49 122C159.93 122 150.71 130.67 140 141.26Z" />
		<path id="Path 24" class="shp2" d="M219.99 141.5L200.5 161.01L240.5 200.98C271.14 170.38 280.03 161.28 280.02 161C280.01 160.72 271.34 151.84 260.75 141.25C250.16 130.67 241.05 122 240.49 122C239.93 122 230.71 130.78 219.99 141.5Z" />
		<path id="Path 25" class="shp0" d="M301 141.09C290.62 151.59 282.09 160.7 282.04 161.34C282 161.98 290.75 171.28 301.49 182L321.01 201.5C351.25 171.28 360.02 161.94 360.01 161.25C360.01 160.56 351.56 151.46 341.25 141.03C330.94 130.59 321.91 122.04 321.19 122.03C320.47 122.01 311.38 130.59 301 141.09Z" />
		<path id="Path 26" class="shp2" d="M381 141.26C370.28 151.85 361.62 160.74 361.75 161.01C361.87 161.28 370.87 170.39 381.74 181.26L401.5 201.02L441.5 161.01C411.27 130.77 402.05 122 401.49 122C400.93 122 391.71 130.67 381 141.26Z" />
		<path id="Path 27" class="shp0" d="M460.99 141.5L441.5 161.01L481.5 201.01L521.5 161C491.27 130.77 482.05 122 481.49 122C480.93 122 471.71 130.78 460.99 141.5Z" />
		<path id="Path 28" class="shp2" d="M540.99 141.5L521.5 161C551.73 191.26 561.05 199.92 561.73 199.77C562.41 199.62 571.53 190.95 582 180.5C592.47 170.05 601.03 161.28 601.02 161C601.01 160.72 592.34 151.84 581.75 141.25C571.16 130.67 562.05 122 561.49 122C560.93 122 551.71 130.78 540.99 141.5Z" />
		<path id="Path 29" class="shp0" d="M621.75 141.05C611.44 151.47 603.02 160.56 603.03 161.25C603.05 161.94 611.49 170.95 621.78 181.27C632.08 191.59 641.17 200.04 642 200.04C642.83 200.04 651.92 191.59 662.22 181.27C672.51 170.95 680.95 161.94 680.97 161.25C680.98 160.56 672.45 151.45 662 141C651.55 130.55 642.44 122.02 641.75 122.05C641.06 122.08 632.06 130.63 621.75 141.05Z" />
		<path id="Path 30" class="shp2" d="M702 141.26C691.28 151.85 682.62 160.74 682.74 161.01C682.86 161.28 691.53 170.05 702 180.5C712.47 190.95 721.59 199.62 722.27 199.77C722.95 199.92 732.27 191.26 743 180.52L762.5 161C732.27 130.77 723.05 122 722.49 122C721.93 122 712.71 130.67 702 141.26Z" />
		<path id="Path 31" class="shp0" d="M781.99 141.5L762.5 161.01L802.5 201.01L842.5 161C812.27 130.77 803.05 122 802.49 122C801.93 122 792.71 130.78 781.99 141.5Z" />
		<path id="Path 32" class="shp2" d="M861.99 141.5L842.5 161.01L882.5 201.02C913.13 170.39 922.02 161.28 922.02 161C922.01 160.72 913.34 151.84 902.75 141.25C892.16 130.67 883.05 122 882.49 122C881.93 122 872.71 130.78 861.99 141.5Z" />
		<path id="Path 33" class="shp0" d="M942.75 141.02C932.44 151.46 923.99 160.56 923.99 161.25C923.98 161.94 932.75 171.28 943.48 182L962.99 201.5C993.25 171.28 1002.03 161.94 1002.02 161.25C1002.01 160.56 993.45 151.45 983 141C972.55 130.55 963.44 122.01 962.75 122.02C962.06 122.04 953.06 130.59 942.75 141.02Z" />
		<path id="Path 34" class="shp2" d="M1023 141.26C1012.28 151.85 1003.62 160.74 1003.74 161.01C1003.86 161.28 1012.86 170.38 1023.73 181.24L1043.5 200.98L1083.5 161.01C1053.28 130.77 1044.05 122 1043.49 122C1042.93 122 1033.71 130.67 1023 141.26Z" />
		<path id="Path 35" class="shp0" d="M1103 141.26C1092.28 151.85 1083.69 160.96 1083.91 161.51C1084.13 162.05 1093.12 171.15 1103.9 181.73L1123.5 200.95C1154.14 170.38 1163.03 161.28 1163.02 161C1163.01 160.72 1154.34 151.84 1143.75 141.25C1133.16 130.67 1124.05 122 1123.49 122C1122.93 122 1113.71 130.67 1103 141.26Z" />
		<path id="Path 36" class="shp2" d="M1182.99 141.5L1163.5 161.01L1203.5 200.98C1234.14 170.38 1243.03 161.28 1243.02 161C1243.01 160.72 1234.34 151.84 1223.75 141.25C1213.16 130.67 1204.05 122 1203.49 122C1202.93 122 1193.71 130.78 1182.99 141.5Z" />
		<path id="Path 37" class="shp0" d="M1263.75 141.1C1253.44 151.49 1245.01 160.56 1245.02 161.25C1245.03 161.94 1253.47 170.94 1263.77 181.26C1274.07 191.58 1282.84 200.02 1283.25 200.01C1283.66 200 1284 182.45 1284 161C1284 139.55 1283.66 122.04 1283.25 122.1C1282.84 122.15 1274.06 130.7 1263.75 141.1Z" />
		<path id="Path 38" class="shp2" d="M0 241.75L-0.01 281.5L40 241.5C9.8 210.89 0.8 202 0.52 202C0.23 202 0 219.89 0 241.75Z" />
		<path id="Path 39" class="shp0" d="M60 221.26C49.28 231.85 40.63 240.96 40.77 241.51C40.91 242.05 49.79 251.28 60.5 262L79.98 281.5L120.5 241.04C89.89 210.78 80.66 202 80.24 202C79.82 202 70.71 210.67 60 221.26Z" />
		<path id="Path 40" class="shp2" d="M139.99 221.46C129.27 232.17 120.85 241.28 121.28 241.71C121.7 242.15 130.7 251.16 141.28 261.75L160.5 280.99L200.5 241.01C170.28 210.77 161.05 202 160.49 202C159.93 202 150.71 210.76 139.99 221.46Z" />
		<path id="Path 41" class="shp0" d="M220.24 221.56L200.5 241.11L240.91 281.5C271.17 251.28 279.97 242.05 279.98 241.5C280 240.95 271.34 231.84 260.75 221.25C250.16 210.67 241.16 202 240.74 202C240.33 202 231.1 210.8 220.24 221.56Z" />
		<path id="Path 42" class="shp2" d="M300.74 221.75L281 241.5L321 281.5L361 241.5C330.39 210.88 321.27 202 320.99 202C320.71 202 311.6 210.89 300.74 221.75Z" />
		<path id="Path 43" class="shp0" d="M381 221.26C370.28 231.85 361.62 240.96 361.74 241.51C361.86 242.05 370.77 251.28 381.53 262L401.1 281.5L441.5 241.04C410.89 210.78 401.66 202 401.24 202C400.82 202 391.71 210.67 381 221.26Z" />
		<path id="Path 44" class="shp2" d="M460.99 221.5L441.5 241.01L481.5 281.01L521.5 241C491.27 210.77 482.05 202 481.49 202C480.93 202 471.71 210.78 460.99 221.5Z" />
		<path id="Path 45" class="shp0" d="M541 221.62L521.5 241.11L561.96 281.5C592.21 251.28 600.99 242.05 601 241.5C601 240.95 592.34 231.84 581.75 221.25C571.16 210.67 562.05 202.03 561.5 202.07C560.95 202.1 551.73 210.9 541 221.62Z" />
		<path id="Path 46" class="shp2" d="M621.74 221.75L602 241.5L642 281.5L682 241.5C651.39 210.88 642.27 202 641.99 202C641.71 202 632.6 210.89 621.74 221.75Z" />
		<path id="Path 47" class="shp0" d="M702 221.26C691.28 231.85 682.63 240.96 682.76 241.51C682.9 242.05 691.79 251.28 702.52 262L722.04 281.5L762.5 241.11C731.89 210.8 722.66 202 722.24 202C721.82 202 712.71 210.67 702 221.26Z" />
		<path id="Path 48" class="shp2" d="M781.99 221.5L762.5 241.01L802.5 281.01L842.5 241C812.27 210.77 803.05 202 802.49 202C801.93 202 792.71 210.78 781.99 221.5Z" />
		<path id="Path 49" class="shp0" d="M862.24 221.52L842.5 241.04L882.9 281.5C913.23 251.28 922.03 242.05 922.02 241.5C922.01 240.95 913.34 231.84 902.75 221.25C892.16 210.67 883.16 202 882.74 202C882.32 202 873.1 210.78 862.24 221.52Z" />
		<path id="Path 50" class="shp2" d="M942.74 221.75L923 241.5L963 281.5L1003 241.5C972.39 210.88 963.27 202 962.99 202C962.71 202 953.6 210.89 942.74 221.75Z" />
		<path id="Path 51" class="shp0" d="M1023 221.26C1012.28 231.85 1003.64 240.96 1003.78 241.51C1003.92 242.05 1012.83 251.28 1023.57 262L1043.09 281.5L1083.5 241.11C1052.89 210.8 1043.66 202 1043.24 202C1042.82 202 1033.71 210.67 1023 221.26Z" />
		<path id="Path 52" class="shp2" d="M1102.99 221.5L1083.5 241.01L1123.5 280.99C1153.3 251.16 1162.3 242.15 1162.72 241.71C1163.15 241.28 1154.72 232.17 1144 221.46C1133.28 210.75 1124.05 202 1123.49 202C1122.93 202 1113.71 210.78 1102.99 221.5Z" />
		<path id="Path 53" class="shp0" d="M1183 221.58L1163.5 241.05L1204.02 281.5C1234.21 251.28 1242.98 242.05 1242.99 241.5C1243 240.95 1234.34 231.84 1223.75 221.25C1213.16 210.67 1204.05 202.03 1203.5 202.06C1202.95 202.08 1193.72 210.87 1183 221.58Z" />
		<path id="Path 54" class="shp2" d="M1263.74 221.75L1244 241.5L1284.01 281.5C1284 219.89 1283.88 202 1283.74 202C1283.6 202 1274.6 210.89 1263.74 221.75Z" />
		<path id="Path 55" class="shp0" d="M-0.01 321.5L-0.01 361.5C30.23 331.27 39.01 322.05 39.01 321.5C39.01 320.95 30.23 311.73 19.5 301L-0.01 281.5L-0.01 321.5Z" />
		<path id="Path 56" class="shp2" d="M60 301.26C49.28 311.85 40.63 320.96 40.76 321.51C40.89 322.05 49.77 331.27 60.5 342L80 361.5L120 321.5C89.39 290.88 80.27 282 79.99 282C79.71 282 70.71 290.67 60 301.26Z" />
		<path id="Path 57" class="shp0" d="M140.27 301.29C129.7 311.86 121.03 320.95 121.02 321.5C121 322.05 129.66 331.16 140.25 341.75C150.84 352.33 159.95 360.99 160.5 360.98C161.05 360.97 170.14 352.31 180.71 341.73C191.27 331.15 199.93 322.05 199.96 321.5C199.98 320.95 191.22 311.84 180.5 301.25C169.77 290.66 160.66 282.02 160.25 282.04C159.84 282.06 150.85 290.72 140.27 301.29Z" />
		<path id="Path 58" class="shp2" d="M220.76 301.75L201.03 321.5C231.62 352.14 240.72 361.03 241 361.01C241.28 361 250.16 352.33 260.75 341.75C271.34 331.16 280.01 322.05 280.01 321.5C280.01 320.95 271.34 311.84 260.75 301.25C250.16 290.67 241.27 282 240.99 282C240.71 282 231.6 290.89 220.76 301.75Z" />
		<path id="Path 59" class="shp0" d="M301 301.26C290.28 311.85 281.63 320.96 281.76 321.51C281.89 322.05 290.77 331.27 301.5 342L321 361.5C351.23 331.27 360.01 322.05 360.01 321.5C360.01 320.95 351.34 311.84 340.75 301.25C330.16 290.67 321.27 282 320.99 282C320.71 282 311.71 290.67 301 301.26Z" />
		<path id="Path 60" class="shp2" d="M381 301.26C370.28 311.85 361.63 320.96 361.76 321.51C361.89 322.05 370.77 331.27 381.5 342L401 361.5L441 321.5C410.39 290.88 401.27 282 400.99 282C400.71 282 391.71 290.67 381 301.26Z" />
		<path id="Path 61" class="shp0" d="M461.5 301.4C450.87 312.07 442.12 321.18 442.06 321.65C442 322.12 450.74 331.16 461.48 341.75C472.21 352.34 481.34 361 481.75 360.99C482.16 360.99 491.16 352.33 501.74 341.74C512.32 331.16 520.96 322.05 520.95 321.5C520.93 320.95 512.27 311.85 501.71 301.29C491.14 290.72 482.12 282.06 481.66 282.04C481.2 282.02 472.13 290.73 461.5 301.4Z" />
		<path id="Path 62" class="shp2" d="M541.76 301.75L522.03 321.5C552.62 352.14 561.73 361.03 562 361.01C562.27 361 571.16 352.33 581.75 341.75C592.34 331.16 601.01 322.05 601.01 321.5C601.01 320.95 592.34 311.84 581.75 301.25C571.16 290.67 562.27 282 561.99 282C561.71 282 552.6 290.89 541.76 301.75Z" />
		<path id="Path 63" class="shp0" d="M622 301.26C611.28 311.85 602.63 320.96 602.76 321.51C602.89 322.05 611.77 331.27 622.5 342L642 361.5C672.23 331.27 681.01 322.05 681.01 321.5C681.01 320.95 672.34 311.84 661.75 301.25C651.16 290.67 642.27 282 641.99 282C641.71 282 632.71 290.67 622 301.26Z" />
		<path id="Path 64" class="shp2" d="M702 301.26C691.28 311.85 682.63 320.96 682.76 321.51C682.89 322.05 691.66 331.16 702.25 341.75C712.84 352.33 721.73 361 722 361.01C722.27 361.03 731.38 352.14 742.24 341.27L761.97 321.5C731.38 290.88 722.27 282 721.99 282C721.71 282 712.71 290.67 702 301.26Z" />
		<path id="Path 65" class="shp0" d="M782.29 301.28C771.73 311.85 763.07 320.95 763.06 321.5C763.04 322.05 771.68 331.16 782.26 341.74C792.84 352.33 801.84 360.99 802.25 360.99C802.66 361 811.79 352.34 822.52 341.75C833.26 331.16 842.04 322.16 842.02 321.75C842.01 321.34 833.23 312.23 822.5 301.5C811.77 290.77 802.66 282.02 802.25 282.03C801.84 282.05 792.86 290.71 782.29 301.28Z" />
		<path id="Path 66" class="shp2" d="M862.74 301.75L843 321.5L883 361.5C913.23 331.27 922.01 322.05 922.01 321.5C922.01 320.95 913.34 311.84 902.75 301.25C892.16 290.67 883.27 282 882.99 282C882.71 282 873.6 290.89 862.74 301.75Z" />
		<path id="Path 67" class="shp0" d="M943 301.26C932.28 311.85 923.63 320.96 923.76 321.51C923.89 322.05 932.77 331.27 943.5 342L963 361.5C993.23 331.27 1002.01 322.05 1002.01 321.5C1002.01 320.95 993.34 311.84 982.75 301.25C972.16 290.67 963.27 282 962.99 282C962.71 282 953.71 290.67 943 301.26Z" />
		<path id="Path 68" class="shp2" d="M1023 301.26C1012.28 311.85 1003.63 320.96 1003.76 321.51C1003.89 322.05 1012.66 331.16 1023.25 341.75C1033.84 352.33 1042.72 361 1043 361.01C1043.28 361.03 1052.38 352.14 1063.24 341.27L1082.97 321.5C1052.38 290.88 1043.27 282 1042.99 282C1042.71 282 1033.71 290.67 1023 301.26Z" />
		<path id="Path 69" class="shp0" d="M1103.26 301.3C1092.67 311.86 1084.03 320.95 1084.05 321.5C1084.07 322.05 1092.73 331.16 1103.29 341.74C1113.86 352.33 1122.95 360.99 1123.5 360.99C1124.05 360.99 1133.16 352.33 1143.75 341.75C1154.34 331.16 1163 322.05 1162.99 321.5C1162.98 320.95 1154.31 311.86 1143.73 301.29C1133.16 290.73 1124.05 282.09 1123.5 282.1C1122.95 282.1 1113.84 290.75 1103.26 301.3Z" />
		<path id="Path 70" class="shp2" d="M1183.74 301.75L1164 321.5L1204 361.5C1234.23 331.27 1243.01 322.05 1243.01 321.5C1243.01 320.95 1234.34 311.84 1223.75 301.25C1213.16 290.67 1204.27 282 1203.99 282C1203.71 282 1194.6 290.89 1183.74 301.75Z" />
		<path id="Path 71" class="shp0" d="M1264 301.26C1253.28 311.85 1244.63 320.96 1244.76 321.51C1244.89 322.05 1253.77 331.27 1264.5 342L1284.01 361.5C1284 299.89 1283.88 282 1283.74 282C1283.6 282 1274.71 290.67 1264 301.26Z" />
		<path id="Path 72" class="shp2" d="M-0.01 401.5L-0.01 441.5C30.23 411.27 39.01 402.05 39.01 401.5C39.01 400.95 30.23 391.73 19.5 381L-0.01 361.5L-0.01 401.5Z" />
		<path id="Path 73" class="shp0" d="M60.76 381.09C49.9 391.76 41.02 400.95 41.01 401.5C41 402.05 49.66 411.16 60.25 421.75C70.84 432.33 79.96 441 80.53 441C81.1 441 90.32 432.22 101.03 421.48L120.5 401.97L80.49 361.67L60.76 381.09Z" />
		<path id="Path 74" class="shp2" d="M140.5 382L120.5 402C150.72 432.23 159.95 441.01 160.5 441.01C161.05 441.01 170.28 432.23 181 421.5L200.5 401.99L160.49 361.99L140.5 382Z" />
		<path id="Path 75" class="shp0" d="M220.42 382.04L200.5 402.02C230.72 432.21 239.95 440.98 240.5 440.98C241.05 440.99 250.16 432.33 260.75 421.75C271.34 411.16 280.01 402.05 280 401.5C280 400.95 272.01 392.62 262.25 382.99C252.49 373.36 243.57 364.71 242.42 363.77C240.4 362.1 239.9 362.51 220.42 382.04Z" />
		<path id="Path 76" class="shp2" d="M300.74 381.75L281 401.5L321 441.5L361 401.5C330.39 370.88 321.27 362 320.99 362C320.71 362 311.6 370.89 300.74 381.75Z" />
		<path id="Path 77" class="shp0" d="M381.27 381.29C370.69 391.86 362.03 400.95 362.01 401.5C362 402.05 370.66 411.16 381.25 421.75C391.84 432.33 401.07 441 401.77 441C402.46 441 411.69 432.23 422.27 421.52L441.5 402.04C410.5 371 401.27 362.01 401 362.04C400.73 362.06 391.85 370.73 381.27 381.29Z" />
		<path id="Path 78" class="shp2" d="M461.5 382L441.5 402C471.73 432.23 480.95 441.01 481.5 441.01C482.05 441.01 491.27 432.23 502 421.5L521.5 401.99L481.49 361.99L461.5 382Z" />
		<path id="Path 79" class="shp0" d="M541.49 381.95L521.5 401.9C551.73 432.19 560.95 440.99 561.5 440.99C562.05 440.99 571.16 432.33 581.75 421.75C592.34 411.16 601 402.05 600.99 401.5C600.98 400.95 592.2 391.84 581.49 381.25C570.77 370.66 561.88 362 561.74 362C561.6 362 552.49 370.98 541.49 381.95Z" />
		<path id="Path 80" class="shp2" d="M621.74 381.75L602 401.5L642 441.5L682 401.5C651.39 370.88 642.27 362 641.99 362C641.71 362 632.6 370.89 621.74 381.75Z" />
		<path id="Path 81" class="shp0" d="M702.27 381.29C691.69 391.86 683.03 400.95 683.01 401.5C683 402.05 691.66 411.16 702.25 421.75C712.84 432.33 721.95 440.99 722.5 440.99C723.05 440.99 732.27 432.19 743 421.44L762.5 401.9C731.5 370.97 722.27 362.01 722 362.04C721.73 362.06 712.85 370.73 702.27 381.29Z" />
		<path id="Path 82" class="shp2" d="M782.5 382L762.5 402C792.73 432.23 801.95 441.01 802.5 441.01C803.05 441.01 812.27 432.23 823 421.5L842.5 401.99L802.49 361.99L782.5 382Z" />
		<path id="Path 83" class="shp0" d="M862.49 382.02L842.5 402.04C872.73 432.19 881.95 440.96 882.5 440.97C883.05 440.98 892.16 432.33 902.75 421.75C913.34 411.16 922 402.05 921.99 401.5C921.98 400.95 913.2 391.84 902.49 381.25C891.77 370.66 882.88 362 882.74 362C882.6 362 873.49 371.01 862.49 382.02Z" />
		<path id="Path 84" class="shp2" d="M942.74 381.75L923 401.5L963 441.5L1003 401.5C972.39 370.88 963.27 362 962.99 362C962.71 362 953.6 370.89 942.74 381.75Z" />
		<path id="Path 85" class="shp0" d="M1023.79 381.05C1012.95 391.68 1004.06 400.86 1004.04 401.44C1004.01 402.02 1012.66 411.16 1023.25 421.75C1033.84 432.33 1043.01 441 1043.62 441C1044.24 441 1053.46 432.23 1064.12 421.51L1083.5 402.02L1043.49 361.71L1023.79 381.05Z" />
		<path id="Path 86" class="shp2" d="M1103.5 382L1083.5 402C1113.72 432.23 1122.95 441.01 1123.5 441.01C1124.05 441.01 1133.28 432.23 1144 421.5L1163.5 401.99L1123.49 361.99L1103.5 382Z" />
		<path id="Path 87" class="shp0" d="M1183.32 382.05L1163.5 401.93C1193.72 432.18 1202.95 440.97 1203.5 440.98C1204.05 440.99 1213.16 432.33 1223.75 421.75C1234.34 411.16 1242.99 402.05 1242.97 401.5C1242.94 400.95 1235.18 392.74 1225.71 383.27C1216.25 373.79 1207.29 365.16 1205.82 364.1L1203.14 362.17L1183.32 382.05Z" />
		<path id="Path 88" class="shp2" d="M1264 381.26C1253.28 391.85 1244.63 400.96 1244.76 401.51C1244.89 402.05 1253.77 411.27 1264.5 422L1284.01 441.5C1284 379.89 1283.88 362 1283.74 362C1283.6 362 1274.71 370.67 1264 381.26Z" />
		<path id="Path 89" class="shp0" d="M0.23 481.88C0.1 503.39 0.23 521 0.5 521C0.77 521 9.55 512.56 19.99 502.25C30.43 491.94 38.97 482.82 38.95 482C38.94 481.18 30.95 472.63 21.21 463C11.47 453.38 2.82 444.88 1.98 444.13C0.63 442.9 0.44 446.98 0.23 481.88Z" />
		<path id="Path 90" class="shp2" d="M59.99 462.5L40.5 482C70.72 512.23 79.95 521.01 80.5 521.01C81.05 521.01 90.28 512.23 101 501.5L120.5 482C90.28 451.77 81.05 443 80.49 443C79.93 443 70.71 451.77 59.99 462.5Z" />
		<path id="Path 91" class="shp0" d="M139.99 462.5L120.5 482C150.72 512.23 159.95 521.01 160.5 521.01C161.05 521.01 170.28 512.23 181 501.5L200.5 482C170.28 451.77 161.05 443 160.49 443C159.93 443 150.71 451.77 139.99 462.5Z" />
		<path id="Path 92" class="shp2" d="M219.99 462.5L200.5 482C230.72 512.23 239.95 521.01 240.5 521.01C241.05 521.01 250.28 512.23 261 501.5L280.5 482C250.28 451.77 241.05 443 240.49 443C239.93 443 230.71 451.77 219.99 462.5Z" />
		<path id="Path 93" class="shp0" d="M301 461.89C290.69 472.28 282.21 481.39 282.16 482.14C282.12 482.89 290.28 491.72 300.29 501.76C310.31 511.81 319.29 520.25 320.25 520.51C321.5 520.86 327.43 515.65 341 502.25C351.46 491.94 360.01 482.82 360.01 482C360 481.18 351.57 472.08 341.25 461.79C330.94 451.49 321.88 443.06 321.13 443.04C320.37 443.02 311.31 451.5 301 461.89Z" />
		<path id="Path 94" class="shp2" d="M380.99 462.5L361.5 482C391.73 512.23 400.95 521.01 401.5 521.01C402.05 521.01 411.27 512.23 422 501.5L441.5 482C411.27 451.77 402.05 443 401.49 443C400.93 443 391.71 451.77 380.99 462.5Z" />
		<path id="Path 95" class="shp0" d="M460.99 462.5L441.5 482C471.73 512.23 480.95 521.01 481.5 521.01C482.05 521.01 491.27 512.23 502 501.5L521.5 482C491.27 451.77 482.05 443 481.49 443C480.93 443 471.71 451.77 460.99 462.5Z" />
		<path id="Path 96" class="shp2" d="M540.99 462.5L521.5 482C551.73 512.23 560.95 521.01 561.5 521.01C562.05 521.01 571.27 512.23 582 501.5L601.5 482C571.27 451.77 562.05 443 561.49 443C560.93 443 551.71 451.77 540.99 462.5Z" />
		<path id="Path 97" class="shp0" d="M621.83 461.75C611.49 472.06 603.02 481.06 603.01 481.75C603.01 482.44 611.44 491.56 621.75 502.02C632.06 512.48 641.17 521.04 642 521.04C642.83 521.04 651.94 512.48 662.25 502.02C672.56 491.56 680.99 482.44 680.99 481.75C680.98 481.06 672.54 472.07 662.24 461.77C651.93 451.47 642.85 443.03 642.06 443.02C641.27 443.01 632.17 451.44 621.83 461.75Z" />
		<path id="Path 98" class="shp2" d="M701.99 462.5L682.5 482C712.73 512.23 721.95 521.01 722.5 521.01C723.05 521.01 732.27 512.23 743 501.5L762.5 482C732.27 451.77 723.05 443 722.49 443C721.93 443 712.71 451.77 701.99 462.5Z" />
		<path id="Path 99" class="shp0" d="M781.99 462.5L762.5 482C792.73 512.23 801.95 521.01 802.5 521.01C803.05 521.01 812.27 512.23 823 501.5L842.5 482C812.27 451.77 803.05 443 802.49 443C801.93 443 792.71 451.77 781.99 462.5Z" />
		<path id="Path 100" class="shp2" d="M861.99 462.5L842.5 482C872.73 512.23 881.95 521.01 882.5 521.01C883.05 521.01 892.27 512.23 903 501.5L922.5 482C892.27 451.77 883.05 443 882.49 443C881.93 443 872.71 451.77 861.99 462.5Z" />
		<path id="Path 101" class="shp0" d="M942.75 461.78C932.44 472.08 924 481.18 924 482C923.99 482.82 932.54 491.94 943 502.25C956.57 515.65 962.5 520.86 963.75 520.51C964.71 520.25 973.69 511.81 983.71 501.76C993.72 491.72 1001.93 482.94 1001.96 482.25C1001.98 481.56 993.56 472.47 983.25 462.04C972.94 451.62 963.83 443.08 963 443.07C962.17 443.07 953.06 451.49 942.75 461.78Z" />
		<path id="Path 102" class="shp2" d="M1022.99 462.5L1003.5 482C1033.72 512.23 1042.95 521.01 1043.5 521.01C1044.05 521.01 1053.28 512.23 1064 501.5L1083.5 482C1053.28 451.77 1044.05 443 1043.49 443C1042.93 443 1033.71 451.77 1022.99 462.5Z" />
		<path id="Path 103" class="shp0" d="M1102.99 462.5L1083.5 482C1113.72 512.23 1122.95 521.01 1123.5 521.01C1124.05 521.01 1133.28 512.23 1144 501.5L1163.5 482C1133.28 451.77 1124.05 443 1123.49 443C1122.93 443 1113.71 451.77 1102.99 462.5Z" />
		<path id="Path 104" class="shp2" d="M1182.99 462.5L1163.5 482C1193.72 512.23 1202.95 521.01 1203.5 521.01C1204.05 521.01 1213.28 512.23 1224 501.5L1243.5 482C1213.28 451.77 1204.05 443 1203.49 443C1202.93 443 1193.71 451.77 1182.99 462.5Z" />
		<path id="Path 105" class="shp0" d="M1264.24 461.55C1253.65 472.01 1244.99 481.23 1245 482.03C1245.01 482.84 1253.57 491.94 1264.01 502.25C1274.45 512.56 1283.22 520.89 1283.48 520.75C1283.74 520.61 1283.86 502.96 1283.73 481.51L1283.5 442.53L1264.24 461.55Z" />
		<path id="Path 106" class="shp2" d="M0 562.75L-0.01 602.5L40 562.5C9.8 531.89 0.8 523 0.52 523C0.23 523 0 540.89 0 562.75Z" />
		<path id="Path 107" class="shp0" d="M60 542.26C49.28 552.85 40.64 561.96 40.79 562.51C40.93 563.05 49.87 572.27 60.64 583L80.23 602.5L120.5 562.19C90.28 531.81 81.05 523 80.49 523C79.93 523 70.71 531.67 60 542.26Z" />
		<path id="Path 108" class="shp2" d="M139.99 542.5L120.5 562.01L160.5 602.01L200.5 562C170.28 531.77 161.05 523 160.49 523C159.93 523 150.71 531.78 139.99 542.5Z" />
		<path id="Path 109" class="shp0" d="M219.96 542.62L200.5 562.24L240.97 602.5C271.21 572.27 279.99 563.05 280 562.5C280 561.95 271.34 552.84 260.75 542.25C250.16 531.67 241.03 523 240.46 523C239.89 523 230.67 531.83 219.96 542.62Z" />
		<path id="Path 110" class="shp2" d="M300.74 542.75L281 562.5L321 602.5L361 562.5C330.39 531.88 321.27 523 320.99 523C320.71 523 311.6 531.89 300.74 542.75Z" />
		<path id="Path 111" class="shp0" d="M381 542.26C370.28 552.85 361.62 561.96 361.74 562.51C361.86 563.05 370.77 572.27 381.53 583L401.1 602.5L441.5 562.1C411.27 531.81 402.05 523.01 401.49 523.01C400.93 523 391.71 531.67 381 542.26Z" />
		<path id="Path 112" class="shp2" d="M460.99 542.5L441.5 562.01L481.5 602.01L521.5 562C491.27 531.77 482.05 523 481.49 523C480.93 523 471.71 531.78 460.99 542.5Z" />
		<path id="Path 113" class="shp0" d="M541 542.56L521.5 562.09L561.88 602.5C592.21 572.27 601.01 563.05 601.01 562.5C601.01 561.95 592.34 552.84 581.75 542.25C571.16 531.67 562.05 523.01 561.5 523.02C560.95 523.03 551.73 531.83 541 542.56Z" />
		<path id="Path 114" class="shp2" d="M621.74 542.75L602 562.5L642 602.5L682 562.5C651.39 531.88 642.27 523 641.99 523C641.71 523 632.6 531.89 621.74 542.75Z" />
		<path id="Path 115" class="shp0" d="M702 542.26C691.28 552.85 682.62 561.96 682.75 562.51C682.88 563.05 691.79 572.27 702.55 583L722.12 602.5L762.5 562.09C732.27 531.83 723.05 523.03 722.49 523.02C721.93 523.01 712.71 531.67 702 542.26Z" />
		<path id="Path 116" class="shp2" d="M781.99 542.5L762.5 562.01L802.5 602.01L842.5 562C812.27 531.77 803.05 523 802.49 523C801.93 523 792.71 531.78 781.99 542.5Z" />
		<path id="Path 117" class="shp0" d="M862 542.56L842.5 562.1L882.9 602.5C913.23 572.27 922.03 563.05 922.02 562.5C922.01 561.95 913.34 552.84 902.75 542.25C892.16 531.67 883.05 523.01 882.5 523.01C881.95 523.01 872.73 531.81 862 542.56Z" />
		<path id="Path 118" class="shp2" d="M942.74 542.75L923 562.5L963 602.5L1003 562.5C972.39 531.88 963.27 523 962.99 523C962.71 523 953.6 531.89 942.74 542.75Z" />
		<path id="Path 119" class="shp0" d="M1023 542.26C1012.28 552.85 1003.63 561.96 1003.76 562.51C1003.9 563.05 1012.79 572.27 1023.52 583L1043.03 602.5L1083.5 562.24C1053.28 531.81 1044.05 522.98 1043.49 522.99C1042.93 522.99 1033.71 531.67 1023 542.26Z" />
		<path id="Path 120" class="shp2" d="M1102.99 542.5L1083.5 562.01L1123.5 602.01L1163.5 562C1133.28 531.77 1124.05 523 1123.49 523C1122.93 523 1113.71 531.78 1102.99 542.5Z" />
		<path id="Path 121" class="shp0" d="M1182.99 542.59L1163.5 562.19L1203.5 602.23C1234.06 572.21 1242.95 563.05 1242.97 562.5C1242.99 561.95 1234.34 552.84 1223.75 542.25C1213.16 531.67 1204.05 523 1203.49 523C1202.93 523 1193.71 531.82 1182.99 542.59Z" />
		<path id="Path 122" class="shp2" d="M1263.74 542.75L1244 562.5L1284.01 602.5C1284 540.89 1283.88 523 1283.74 523C1283.6 523 1274.6 531.89 1263.74 542.75Z" />
		<path id="Path 123" class="shp0" d="M-0.01 642.5L-0.01 682.5C30.23 652.27 39.01 643.05 39.01 642.5C39.01 641.95 30.23 632.73 19.5 622L-0.01 602.5L-0.01 642.5Z" />
		<path id="Path 124" class="shp2" d="M60 622.26C49.28 632.85 40.63 641.96 40.76 642.51C40.89 643.05 49.77 652.27 60.5 663L80 682.5L120 642.5C89.39 611.88 80.27 603 79.99 603C79.71 603 70.71 611.67 60 622.26Z" />
		<path id="Path 125" class="shp0" d="M140.4 622.25C129.75 632.84 121.03 641.95 121.04 642.5C121.05 643.05 129.82 652.16 140.53 662.75C151.24 673.34 160.34 682 160.75 681.99C161.16 681.99 170.15 673.32 180.72 662.74C191.29 652.16 199.93 643.05 199.93 642.5C199.93 641.95 191.28 632.84 180.72 622.26C170.15 611.68 161.11 603.01 160.64 603.01C160.17 603 151.06 611.66 140.4 622.25Z" />
		<path id="Path 126" class="shp2" d="M220.74 622.75L201 642.5L241 682.5C271.23 652.27 280.01 643.05 280.01 642.5C280.01 641.95 271.34 632.84 260.75 622.25C250.16 611.67 241.27 603 240.99 603C240.71 603 231.6 611.89 220.74 622.75Z" />
		<path id="Path 127" class="shp0" d="M301 622.26C290.28 632.85 281.63 641.96 281.76 642.51C281.89 643.05 290.77 652.27 301.5 663L321 682.5C351.23 652.27 360.01 643.05 360.01 642.5C360.01 641.95 351.34 632.84 340.75 622.25C330.16 611.67 321.27 603 320.99 603C320.71 603 311.71 611.67 301 622.26Z" />
		<path id="Path 128" class="shp2" d="M381 622.26C370.28 632.85 361.63 641.96 361.76 642.51C361.89 643.05 370.77 652.27 381.5 663L401 682.5L441 642.5C410.39 611.88 401.27 603 400.99 603C400.71 603 391.71 611.67 381 622.26Z" />
		<path id="Path 129" class="shp0" d="M461.28 622.27C450.71 632.85 442.04 641.95 442.01 642.5C441.98 643.05 450.63 652.15 461.23 662.71C471.83 673.28 480.95 681.93 481.5 681.93C482.05 681.93 491.16 673.28 501.74 662.71C512.33 652.15 520.98 643.05 520.97 642.5C520.96 641.95 512.3 632.85 501.73 622.28C491.15 611.71 482.05 603.05 481.5 603.05C480.95 603.05 471.85 611.7 461.28 622.27Z" />
		<path id="Path 130" class="shp2" d="M541.74 622.75L522 642.5L562 682.5C592.23 652.27 601.01 643.05 601.01 642.5C601.01 641.95 592.34 632.84 581.75 622.25C571.16 611.67 562.27 603 561.99 603C561.71 603 552.6 611.89 541.74 622.75Z" />
		<path id="Path 131" class="shp0" d="M622 622.26C611.28 632.85 602.63 641.96 602.76 642.51C602.89 643.05 611.77 652.27 622.5 663L642 682.5C672.23 652.27 681.01 643.05 681.01 642.5C681.01 641.95 672.34 632.84 661.75 622.25C651.16 611.67 642.27 603 641.99 603C641.71 603 632.71 611.67 622 622.26Z" />
		<path id="Path 132" class="shp2" d="M702 622.26C691.28 632.85 682.63 641.96 682.76 642.51C682.89 643.05 691.77 652.27 702.5 663L722 682.5L762 642.5C731.39 611.88 722.27 603 721.99 603C721.71 603 712.71 611.67 702 622.26Z" />
		<path id="Path 133" class="shp0" d="M782.36 622.25C771.74 632.84 763.04 641.95 763.03 642.5C763.02 643.05 771.67 652.15 782.26 662.71C792.84 673.28 801.95 681.93 802.5 681.93C803.05 681.93 812.17 673.28 822.77 662.71C833.37 652.15 842.02 643.05 841.99 642.5C841.96 641.95 833.29 632.85 822.72 622.27C812.15 611.7 803.09 603.03 802.58 603.02C802.08 603.01 792.98 611.66 782.36 622.25Z" />
		<path id="Path 134" class="shp2" d="M862.74 622.75L843 642.5L883 682.5C913.23 652.27 922.01 643.05 922.01 642.5C922.01 641.95 913.34 632.84 902.75 622.25C892.16 611.67 883.27 603 882.99 603C882.71 603 873.6 611.89 862.74 622.75Z" />
		<path id="Path 135" class="shp0" d="M943 622.26C932.28 632.85 923.63 641.96 923.76 642.51C923.89 643.05 932.77 652.27 943.5 663L963 682.5C993.23 652.27 1002.01 643.05 1002.01 642.5C1002.01 641.95 993.34 632.84 982.75 622.25C972.16 611.67 963.27 603 962.99 603C962.71 603 953.71 611.67 943 622.26Z" />
		<path id="Path 136" class="shp2" d="M1023 622.26C1012.28 632.85 1003.63 641.96 1003.76 642.51C1003.89 643.05 1012.77 652.27 1023.5 663L1043 682.5L1083 642.5C1052.39 611.88 1043.27 603 1042.99 603C1042.71 603 1033.71 611.67 1023 622.26Z" />
		<path id="Path 137" class="shp0" d="M1103.28 622.26C1092.72 632.84 1084.07 641.95 1084.07 642.5C1084.07 643.05 1092.71 652.16 1103.28 662.74C1113.85 673.32 1122.84 681.99 1123.25 681.99C1123.66 682 1132.76 673.34 1143.47 662.75C1154.18 652.16 1162.95 643.05 1162.96 642.5C1162.97 641.95 1154.21 632.84 1143.49 622.25C1132.77 611.66 1123.66 603 1123.25 603.01C1122.84 603.01 1113.85 611.68 1103.28 622.26Z" />
		<path id="Path 138" class="shp2" d="M1183.74 622.75L1164 642.5L1204 682.5C1234.23 652.27 1243.01 643.05 1243.01 642.5C1243.01 641.95 1234.34 632.84 1223.75 622.25C1213.16 611.67 1204.27 603 1203.99 603C1203.71 603 1194.6 611.89 1183.74 622.75Z" />
		<path id="Path 139" class="shp0" d="M1264 622.26C1253.28 632.85 1244.63 641.96 1244.76 642.51C1244.89 643.05 1253.77 652.27 1264.5 663L1284.01 682.5C1284 620.89 1283.88 603 1283.74 603C1283.6 603 1274.71 611.67 1264 622.26Z" />
		<path id="Path 140" class="shp2" d="M0 722.75L-0.01 762.5L40 722.5C9.8 691.89 0.8 683 0.52 683C0.23 683 0 700.89 0 722.75Z" />
		<path id="Path 141" class="shp0" d="M60.27 702.25C49.7 712.84 41.03 721.95 41.02 722.5C41.01 723.05 49.66 732.16 60.25 742.75C70.84 753.33 79.95 761.99 80.5 761.98C81.05 761.98 90.28 753.17 101 742.41L120.5 722.84C89.5 691.96 80.28 683 80 683C79.72 683 70.85 691.67 60.27 702.25Z" />
		<path id="Path 142" class="shp2" d="M140.5 703L120.5 723C150.72 753.23 159.95 762.01 160.5 762.01C161.05 762.01 170.28 753.23 181 742.5L200.5 722.99L160.49 682.99L140.5 703Z" />
		<path id="Path 143" class="shp0" d="M220.49 702.91L200.5 722.81C231.11 753.18 240.34 762 240.75 762C241.16 762 250.16 753.33 260.75 742.75C271.34 732.16 280 723.05 279.99 722.5C279.99 721.95 271.32 712.85 260.74 702.28C250.16 691.71 241.27 683.05 240.99 683.03C240.71 683.01 231.49 691.96 220.49 702.91Z" />
		<path id="Path 144" class="shp2" d="M300.74 702.75L281 722.5L321 762.5L361 722.5C330.39 691.88 321.27 683 320.99 683C320.71 683 311.6 691.89 300.74 702.75Z" />
		<path id="Path 145" class="shp0" d="M381.25 702.28C370.67 712.85 362 721.95 362 722.5C362 723.05 370.66 732.16 381.25 742.75C391.84 753.33 400.89 762 401.36 762C401.83 762 411.05 753.2 421.86 742.45L441.5 722.9C410.5 691.97 401.27 683.01 401 683.03C400.73 683.05 391.84 691.71 381.25 702.28Z" />
		<path id="Path 146" class="shp2" d="M461.5 703L441.5 723C471.73 753.23 480.95 762.01 481.5 762.01C482.05 762.01 491.27 753.23 502 742.5L521.5 722.99L481.49 682.99L461.5 703Z" />
		<path id="Path 147" class="shp0" d="M541.49 703.02L521.5 723.04C551.73 753.19 560.95 761.95 561.5 761.97C562.05 761.98 571.16 753.33 581.75 742.75C592.34 732.16 601.01 723.05 601.01 722.5C601.02 721.95 592.35 712.85 581.76 702.27C571.17 691.69 562.27 683.03 561.99 683.02C561.71 683.01 552.49 692.01 541.49 703.02Z" />
		<path id="Path 148" class="shp2" d="M621.74 702.75L602 722.5L642 762.5L682 722.5C651.39 691.88 642.27 683 641.99 683C641.71 683 632.6 691.89 621.74 702.75Z" />
		<path id="Path 149" class="shp0" d="M702.25 702.26C691.66 712.84 682.99 721.95 682.99 722.5C682.99 723.05 691.66 732.16 702.25 742.75C712.84 753.33 722.08 762 722.79 762C723.49 762 732.72 753.23 743.29 742.52L762.5 723.04C731.5 692.01 722.27 683 722 683.01C721.73 683.02 712.84 691.68 702.25 702.26Z" />
		<path id="Path 150" class="shp2" d="M782.5 703L762.5 723C792.73 753.23 801.95 762.01 802.5 762.01C803.05 762.01 812.27 753.23 823 742.5L842.5 722.99L802.49 682.99L782.5 703Z" />
		<path id="Path 151" class="shp0" d="M862.49 702.95L842.5 722.9C872.73 753.15 881.95 761.95 882.5 761.96C883.05 761.98 892.16 753.33 902.75 742.75C913.34 732.16 922.01 723.05 922.01 722.5C922.01 721.95 913.34 712.85 902.75 702.29C892.16 691.72 883.27 683.06 882.99 683.04C882.71 683.02 873.49 691.98 862.49 702.95Z" />
		<path id="Path 152" class="shp2" d="M942.74 702.75L923 722.5L963 762.5L1003 722.5C972.39 691.88 963.27 683 962.99 683C962.71 683 953.6 691.89 942.74 702.75Z" />
		<path id="Path 153" class="shp0" d="M1023.26 702.28C1012.68 712.85 1004.02 721.95 1004.01 722.5C1004 723.05 1012.66 732.16 1023.25 742.75C1033.84 753.33 1042.81 762 1043.19 762C1043.56 762 1052.79 753.18 1063.69 742.41L1083.5 722.81C1052.5 691.95 1043.28 683.01 1043 683.03C1042.72 683.04 1033.84 691.71 1023.26 702.28Z" />
		<path id="Path 154" class="shp2" d="M1103.5 703L1083.5 723C1113.72 753.23 1122.95 762.01 1123.5 762.01C1124.05 762.01 1133.28 753.23 1144 742.5L1163.5 722.99L1123.49 682.99L1103.5 703Z" />
		<path id="Path 155" class="shp0" d="M1183.49 702.92L1163.5 722.84C1193.72 753.17 1202.95 761.98 1203.5 761.98C1204.05 761.99 1213.16 753.33 1223.75 742.75C1234.34 732.16 1242.99 723.05 1242.98 722.5C1242.97 721.95 1234.3 712.84 1223.73 702.25C1213.15 691.67 1204.27 683 1203.99 683C1203.71 683 1194.49 691.96 1183.49 702.92Z" />
		<path id="Path 156" class="shp2" d="M1263.74 702.75L1244 722.5L1284.01 762.5C1284 700.89 1283.88 683 1283.74 683C1283.6 683 1274.6 691.89 1263.74 702.75Z" />
		<path id="Path 157" class="shp0" d="M140.5 783L120.5 803C150.72 833.23 159.95 842.01 160.5 842.01C161.05 842.01 170.28 833.23 181 822.5L200.5 802.99L160.49 762.99L140.5 783ZM461.5 783L441.5 803C471.73 833.23 480.95 842.01 481.5 842.01C482.05 842.01 491.27 833.23 502 822.5L521.5 802.99L481.49 762.99L461.5 783ZM782.5 783L762.5 803C792.73 833.23 801.95 842.01 802.5 842.01C803.05 842.01 812.27 833.23 823 822.5L842.5 802.99L802.49 762.99L782.5 783ZM1103.5 783L1083.5 803C1113.72 833.23 1122.95 842.01 1123.5 842.01C1124.05 842.01 1133.28 833.23 1144 822.5L1163.5 802.99L1123.49 762.99L1103.5 783ZM0 803C0 824.45 0.19 842 0.43 842C0.67 842 9.44 833.45 19.93 823C30.42 812.55 38.99 803.44 38.97 802.75C38.96 802.06 30.52 793.06 20.22 782.75C9.93 772.44 1.16 764 0.75 764C0.34 764 0 781.55 0 803Z" />
		<path id="Path 158" class="shp2" d="M59.99 783.5L40.5 803C70.72 833.23 79.95 842.01 80.5 842.01C81.05 842.01 90.28 833.23 101 822.5L120.5 803C90.28 772.77 81.05 764 80.49 764C79.93 764 70.71 772.77 59.99 783.5ZM219.99 783.5L200.5 803C230.72 833.23 239.95 842.01 240.5 842.01C241.05 842.01 250.28 833.23 261 822.5L280.5 803C250.28 772.77 241.05 764 240.49 764C239.93 764 230.71 772.77 219.99 783.5Z" />
		<path id="Path 159" class="shp0" d="M300.75 782.76C290.43 793.07 282.01 802.17 282.04 803C282.06 803.83 290.61 812.94 301.04 823.25C311.47 833.56 320.56 842 321.25 842C321.94 842.01 330.94 833.46 341.25 823C351.56 812.55 359.99 803.44 359.98 802.75C359.96 802.06 351.53 793.07 341.23 782.76C330.93 772.46 321.82 764.02 321 764.02C320.18 764.02 311.06 772.46 300.75 782.76Z" />
		<path id="Path 160" class="shp2" d="M380.99 783.5L361.5 803C391.73 833.23 400.95 842.01 401.5 842.01C402.05 842.01 411.27 833.23 422 822.5L441.5 803C411.27 772.77 402.05 764 401.49 764C400.93 764 391.71 772.77 380.99 783.5ZM540.99 783.5L521.5 803C551.73 833.23 560.95 842.01 561.5 842.01C562.05 842.01 571.27 833.23 582 822.5L601.5 803C571.27 772.77 562.05 764 561.49 764C560.93 764 551.71 772.77 540.99 783.5Z" />
		<path id="Path 161" class="shp0" d="M621.79 782.75C611.46 793.06 603.01 802.17 603.01 803C603 803.83 611.44 812.93 621.75 823.22C632.06 833.52 641.17 841.95 642 841.95C642.83 841.95 651.94 833.52 662.25 823.22C672.56 812.93 681 803.83 680.99 803C680.99 802.17 672.55 793.07 662.24 782.76C651.94 772.46 642.84 764.02 642.04 764.01C641.23 764.01 632.12 772.44 621.79 782.75Z" />
		<path id="Path 162" class="shp2" d="M701.99 783.5L682.5 803C712.73 833.23 721.95 842.01 722.5 842.01C723.05 842.01 732.27 833.23 743 822.5L762.5 803C732.27 772.77 723.05 764 722.49 764C721.93 764 712.71 772.77 701.99 783.5ZM861.99 783.5L842.5 803C872.73 833.23 881.95 842.01 882.5 842.01C883.05 842.01 892.27 833.23 903 822.5L922.5 803C892.27 772.77 883.05 764 882.49 764C881.93 764 872.71 772.77 861.99 783.5Z" />
		<path id="Path 163" class="shp0" d="M942.77 782.76C932.47 793.07 924.04 802.06 924.02 802.75C924.01 803.44 932.44 812.55 942.75 823C953.06 833.46 962.06 842.01 962.75 842C963.44 842 972.53 833.56 982.96 823.25C993.39 812.94 1001.95 803.83 1001.97 803C1002 802.17 993.58 793.07 983.26 782.77C972.94 772.47 963.83 764.03 963 764.03C962.17 764.03 953.07 772.46 942.77 782.76Z" />
		<path id="Path 164" class="shp2" d="M1022.99 783.5L1003.5 803C1033.72 833.23 1042.95 842.01 1043.5 842.01C1044.05 842.01 1053.28 833.23 1064 822.5L1083.5 803C1053.28 772.77 1044.05 764 1043.49 764C1042.93 764 1033.71 772.77 1022.99 783.5ZM1182.99 783.5L1163.5 803C1193.72 833.23 1202.95 842.01 1203.5 842.01C1204.05 842.01 1213.28 833.23 1224 822.5L1243.5 803C1213.28 772.77 1204.05 764 1203.49 764C1202.93 764 1193.71 772.77 1182.99 783.5Z" />
		<path id="Path 165" class="shp0" d="M1263.5 782.83C1253.05 793.19 1244.61 802.19 1244.75 802.83C1244.89 803.47 1253.44 812.54 1263.75 822.97C1274.06 833.4 1282.84 841.95 1283.25 841.97C1283.66 841.99 1284 824.45 1284 803C1284 781.55 1283.66 764 1283.25 764C1282.83 764 1273.94 772.47 1263.5 782.83Z" />
		<path id="Path 166" class="shp2" d="M0 883.75L-0.01 923.5L40 883.5C9.8 852.89 0.8 844 0.52 844C0.23 844 0 861.89 0 883.75Z" />
		<path id="Path 167" class="shp0" d="M60 863.26C49.28 873.85 40.63 882.96 40.77 883.51C40.91 884.05 49.82 893.27 60.56 904L80.08 923.5L120.5 883.07C90.28 852.79 81.05 844 80.49 844C79.93 844 70.71 852.67 60 863.26Z" />
		<path id="Path 168" class="shp2" d="M139.99 863.5L120.5 883.01L160.5 923.01L200.5 883C170.28 852.77 161.05 844 160.49 844C159.93 844 150.71 852.78 139.99 863.5Z" />
		<path id="Path 169" class="shp0" d="M220 863.52L200.5 883.03L240.86 923.5C271.16 893.27 279.97 884.05 279.98 883.5C280 882.95 271.34 873.84 260.75 863.25C250.16 852.67 241.05 844.01 240.5 844.01C239.95 844.01 230.72 852.79 220 863.52Z" />
		<path id="Path 170" class="shp2" d="M300.74 863.75L281 883.5L321 923.5L361 883.5C330.39 852.88 321.27 844 320.99 844C320.71 844 311.6 852.89 300.74 863.75Z" />
		<path id="Path 171" class="shp0" d="M381 863.26C370.28 873.85 361.63 882.85 361.76 883.26C361.89 883.67 370.83 892.89 381.62 903.75L401.25 923.5L441.5 883.15C411.27 852.81 402.05 844 401.49 844C400.93 844 391.71 852.67 381 863.26Z" />
		<path id="Path 172" class="shp2" d="M460.99 863.5L441.5 883.01L481.5 923.01L521.5 883C491.27 852.77 482.05 844 481.49 844C480.93 844 471.71 852.78 460.99 863.5Z" />
		<path id="Path 173" class="shp0" d="M541 863.53L521.5 883.02L561.88 923.5C592.17 893.27 600.97 884.05 600.98 883.5C601 882.95 592.34 873.84 581.75 863.25C571.16 852.67 562.05 844.01 561.5 844.02C560.95 844.03 551.73 852.81 541 863.53Z" />
		<path id="Path 174" class="shp2" d="M621.74 863.75L602 883.5L642 923.5L682 883.5C651.39 852.88 642.27 844 641.99 844C641.71 844 632.6 852.89 621.74 863.75Z" />
		<path id="Path 175" class="shp0" d="M702 863.26C691.28 873.85 682.64 882.96 682.78 883.51C682.92 884.05 691.83 893.27 702.58 904L722.12 923.5L762.5 883.02C732.27 852.81 723.05 844.03 722.49 844.02C721.93 844.01 712.71 852.67 702 863.26Z" />
		<path id="Path 176" class="shp2" d="M781.99 863.5L762.5 883.01L802.5 923.01L842.5 883C812.27 852.77 803.05 844 802.49 844C801.93 844 792.71 852.78 781.99 863.5Z" />
		<path id="Path 177" class="shp0" d="M861.97 863.58L842.5 883.16L882.75 923.5C913.17 892.89 922 883.66 922 883.25C922 882.84 913.34 873.84 902.75 863.25C892.16 852.67 883.03 844 882.47 844C881.9 844 872.67 852.81 861.97 863.58Z" />
		<path id="Path 178" class="shp2" d="M942.74 863.75L923 883.5L963 923.5L1003 883.5C972.39 852.88 963.27 844 962.99 844C962.71 844 953.6 852.89 942.74 863.75Z" />
		<path id="Path 179" class="shp0" d="M1023 863.26C1012.28 873.85 1003.64 882.96 1003.78 883.51C1003.92 884.05 1012.84 893.27 1023.59 904L1043.14 923.5L1083.5 883.12C1053.28 852.79 1044.05 843.99 1043.49 843.99C1042.93 844 1033.71 852.67 1023 863.26Z" />
		<path id="Path 180" class="shp2" d="M1102.99 863.5L1083.5 883.01L1123.5 923.01L1163.5 883C1133.28 852.77 1124.05 844 1123.49 844C1122.93 844 1113.71 852.78 1102.99 863.5Z" />
		<path id="Path 181" class="shp0" d="M1183 863.54L1163.5 883.07L1203.92 923.5C1234.18 893.27 1242.98 884.05 1242.99 883.5C1243 882.95 1234.34 873.84 1223.75 863.25C1213.16 852.67 1204.05 844 1203.5 844C1202.95 844 1193.72 852.79 1183 863.54Z" />
		<path id="Path 182" class="shp2" d="M1263.74 863.75L1244 883.5L1284.01 923.5C1284 861.89 1283.88 844 1283.74 844C1283.6 844 1274.6 852.89 1263.74 863.75Z" />
		<path id="Path 183" class="shp0" d="M-0.01 963.5L-0.01 1003.5C30.23 973.27 39.01 964.05 39.01 963.5C39.01 962.95 30.23 953.73 19.5 943L-0.01 923.5L-0.01 963.5Z" />
		<path id="Path 184" class="shp2" d="M60 943.26C49.28 953.85 40.63 962.96 40.76 963.51C40.89 964.05 49.77 973.27 60.5 984L80 1003.5L120 963.5C89.39 932.88 80.27 924 79.99 924C79.71 924 70.71 932.67 60 943.26Z" />
		<path id="Path 185" class="shp0" d="M140.24 943.28C129.65 953.85 120.99 962.95 121.01 963.5C121.03 964.05 129.69 973.14 140.27 983.71C150.85 994.28 159.84 1002.94 160.25 1002.96C160.66 1002.98 169.76 994.34 180.47 983.75C191.17 973.16 199.95 964.05 199.98 963.5C200 962.95 191.35 953.85 180.76 943.27C170.17 932.69 161.05 924.04 160.5 924.05C159.95 924.05 150.83 932.71 140.24 943.28Z" />
		<path id="Path 186" class="shp2" d="M220.74 943.75L201 963.5L241 1003.5C271.23 973.27 280.01 964.05 280.01 963.5C280.01 962.95 271.34 953.84 260.75 943.25C250.16 932.67 241.27 924 240.99 924C240.71 924 231.6 932.89 220.74 943.75Z" />
		<path id="Path 187" class="shp0" d="M301 943.26C290.28 953.85 281.63 962.96 281.76 963.51C281.89 964.05 290.77 973.27 301.5 984L321 1003.5C351.23 973.27 360.01 964.05 360.01 963.5C360.01 962.95 351.34 953.84 340.75 943.25C330.16 932.67 321.27 924 320.99 924C320.71 924 311.71 932.67 301 943.26Z" />
		<path id="Path 188" class="shp2" d="M381 943.26C370.28 953.85 361.63 962.96 361.76 963.51C361.89 964.05 370.77 973.27 381.5 984L401 1003.5L441 963.5C410.39 932.88 401.27 924 400.99 924C400.71 924 391.71 932.67 381 943.26Z" />
		<path id="Path 189" class="shp0" d="M461 943.3C450.31 953.92 441.66 962.92 441.78 963.3C441.9 963.69 450.21 972.21 460.25 982.25C470.29 992.29 479.3 1001.17 480.27 1002C481.91 1003.38 483.54 1001.98 501.52 983.75C512.23 972.89 520.99 963.66 520.99 963.25C520.98 962.84 512.32 953.84 501.74 943.26C491.16 932.67 482.04 924.01 481.47 924.01C480.9 924 471.69 932.69 461 943.3Z" />
		<path id="Path 190" class="shp2" d="M541.26 943.9L522.02 963.5L562 1003.5C592.23 973.27 601.01 964.05 601.01 963.5C601.01 962.95 592.34 953.84 581.75 943.25C571.16 932.67 562.05 924.07 561.5 924.15C560.95 924.24 551.84 933.12 541.26 943.9Z" />
		<path id="Path 191" class="shp0" d="M621.74 943.75L602 963.5L642 1003.5L682 963.5C651.39 932.88 642.27 924 641.99 924C641.71 924 632.6 932.89 621.74 943.75Z" />
		<path id="Path 192" class="shp2" d="M702 943.26C691.28 953.85 682.63 962.96 682.76 963.51C682.89 964.05 691.77 973.27 702.5 984L722.01 1003.5L761.98 963.5C731.38 932.86 722.27 923.97 721.99 923.98C721.71 923.99 712.71 932.67 702 943.26Z" />
		<path id="Path 193" class="shp0" d="M782.26 943.26C771.68 953.84 763.02 962.84 763.01 963.25C763.01 963.66 771.77 972.89 782.48 983.75C800.46 1001.98 802.09 1003.38 803.73 1002C804.7 1001.17 813.71 992.29 823.75 982.25C833.79 972.21 841.99 963.66 841.98 963.25C841.97 962.84 833.31 953.83 822.73 943.24C812.15 932.65 803.05 923.99 802.5 924C801.95 924 792.84 932.67 782.26 943.26Z" />
		<path id="Path 194" class="shp2" d="M862.74 943.75L843 963.5L883 1003.5C913.23 973.27 922.01 964.05 922.01 963.5C922.01 962.95 913.34 953.84 902.75 943.25C892.16 932.67 883.27 924 882.99 924C882.71 924 873.6 932.89 862.74 943.75Z" />
		<path id="Path 195" class="shp0" d="M943 943.26C932.28 953.85 923.63 962.96 923.76 963.51C923.89 964.05 932.77 973.27 943.5 984L963 1003.5C993.23 973.27 1002.01 964.05 1002.01 963.5C1002.01 962.95 993.34 953.84 982.75 943.25C972.16 932.67 963.27 924 962.99 924C962.71 924 953.71 932.67 943 943.26Z" />
		<path id="Path 196" class="shp2" d="M1023 943.26C1012.28 953.85 1003.63 962.96 1003.76 963.51C1003.89 964.05 1012.77 973.27 1023.5 984L1043 1003.5L1083 963.5C1052.39 932.88 1043.27 924 1042.99 924C1042.71 924 1033.71 932.67 1023 943.26Z" />
		<path id="Path 197" class="shp0" d="M1103.25 943.26C1092.66 953.84 1084.01 962.95 1084.03 963.5C1084.05 964.05 1092.83 973.16 1103.53 983.75C1114.24 994.34 1123.34 1002.98 1123.75 1002.96C1124.16 1002.94 1133.15 994.28 1143.73 983.71C1154.31 973.14 1162.98 964.05 1163 963.5C1163.02 962.95 1154.36 953.85 1143.77 943.28C1133.17 932.71 1124.05 924.06 1123.5 924.04C1122.95 924.03 1113.84 932.68 1103.25 943.26Z" />
		<path id="Path 198" class="shp2" d="M1183.74 943.75L1164 963.5L1204 1003.5C1234.23 973.27 1243.01 964.05 1243.01 963.5C1243.01 962.95 1234.34 953.84 1223.75 943.25C1213.16 932.67 1204.27 924 1203.99 924C1203.71 924 1194.6 932.89 1183.74 943.75Z" />
		<path id="Path 199" class="shp0" d="M1264 943.26C1253.28 953.85 1244.63 962.96 1244.76 963.51C1244.89 964.05 1253.77 973.27 1264.5 984L1284.01 1003.5C1284 941.89 1283.88 924 1283.74 924C1283.6 924 1274.71 932.67 1264 943.26Z" />
		<path id="Path 200" class="shp2" d="M0 1043.75L-0.01 1083.5L40 1043.5C9.8 1012.89 0.8 1004 0.52 1004C0.23 1004 0 1021.89 0 1043.75Z" />
		<path id="Path 201" class="shp0" d="M60.25 1023.26C49.66 1033.84 40.99 1042.95 40.99 1043.5C40.99 1044.05 49.66 1053.16 60.25 1063.75C70.84 1074.33 79.84 1083 80.25 1083C80.66 1083 89.89 1074.22 100.75 1063.48L120.5 1043.96C89.5 1012.99 80.28 1004 80 1004.01C79.72 1004.02 70.84 1012.68 60.25 1023.26Z" />
		<path id="Path 202" class="shp2" d="M140.5 1024L120.5 1044C150.72 1074.23 159.95 1083.01 160.5 1083.01C161.05 1083.01 170.28 1074.23 181 1063.5L200.5 1043.99L160.49 1003.99L140.5 1024Z" />
		<path id="Path 203" class="shp0" d="M220.49 1023.9L200.5 1043.79C230.72 1074.13 239.95 1082.95 240.5 1082.97C241.05 1082.98 250.16 1074.33 260.75 1063.75C271.34 1053.16 280.01 1044.05 280.02 1043.5C280.02 1042.95 271.36 1033.85 260.76 1023.28C250.17 1012.71 241.27 1004.05 240.99 1004.03C240.71 1004.01 231.49 1012.95 220.49 1023.9Z" />
		<path id="Path 204" class="shp2" d="M300.74 1023.75L281 1043.5L321 1083.5L361 1043.5C330.39 1012.88 321.27 1004 320.99 1004C320.71 1004 311.6 1012.89 300.74 1023.75Z" />
		<path id="Path 205" class="shp0" d="M381 1023.26C370.28 1033.85 361.63 1042.96 361.76 1043.51C361.89 1044.05 370.66 1053.16 381.25 1063.75C391.84 1074.33 400.95 1082.99 401.5 1083C402.05 1083 411.22 1074.11 421.87 1063.25L441.24 1043.5C410.44 1012.88 401.27 1004 400.99 1004C400.71 1004 391.71 1012.67 381 1023.26Z" />
		<path id="Path 206" class="shp2" d="M461.47 1024.01L441.5 1044C471.73 1074.23 480.95 1083 481.5 1083C482.05 1083 491.16 1074.33 501.75 1063.75C512.34 1053.16 520.94 1044.05 520.85 1043.5C520.77 1042.95 511.87 1033.84 501.07 1023.26L481.45 1004.02L461.47 1024.01Z" />
		<path id="Path 207" class="shp0" d="M541.69 1023.75L521.9 1043.5C552.2 1074.11 561.34 1083 561.75 1083C562.16 1083 571.16 1074.33 581.75 1063.75C592.34 1053.16 601.01 1044.05 601.01 1043.5C601.02 1042.95 592.35 1033.86 581.76 1023.29C571.17 1012.73 562.27 1004.07 561.99 1004.04C561.71 1004.02 552.58 1012.89 541.69 1023.75Z" />
		<path id="Path 208" class="shp2" d="M621.74 1023.75L602 1043.5L642 1083.5L682 1043.5C651.39 1012.88 642.27 1004 641.99 1004C641.71 1004 632.6 1012.89 621.74 1023.75Z" />
		<path id="Path 209" class="shp0" d="M702.25 1023.29C691.66 1033.85 682.99 1042.95 682.99 1043.5C682.99 1044.05 691.66 1053.16 702.25 1063.75C712.84 1074.33 721.84 1083 722.25 1083C722.66 1083 731.8 1074.11 742.55 1063.25L762.09 1043.5C731.41 1012.88 722.27 1004.01 722 1004.04C721.73 1004.06 712.84 1012.72 702.25 1023.29Z" />
		<path id="Path 210" class="shp2" d="M782.73 1023.76C771.86 1034.62 762.97 1043.72 762.98 1044C762.99 1044.28 771.66 1053.16 782.25 1063.75C792.84 1074.33 801.95 1083 802.5 1083C803.05 1083 812.27 1074.23 823 1063.5L842.5 1043.99L802.49 1004.02L782.73 1023.76Z" />
		<path id="Path 211" class="shp0" d="M862.62 1023.75L842.76 1043.5C872.78 1074.11 881.95 1083 882.5 1083C883.05 1082.99 892.16 1074.33 902.75 1063.75C913.34 1053.16 922.01 1044.05 922.01 1043.5C922.01 1042.95 913.34 1033.84 902.75 1023.25C892.16 1012.67 883.27 1004 882.99 1004C882.71 1004 873.54 1012.89 862.62 1023.75Z" />
		<path id="Path 212" class="shp2" d="M942.74 1023.75L923 1043.5L963 1083.5L1003 1043.5C972.39 1012.88 963.27 1004 962.99 1004C962.71 1004 953.6 1012.89 942.74 1023.75Z" />
		<path id="Path 213" class="shp0" d="M1023.24 1023.28C1012.65 1033.85 1003.99 1042.95 1003.99 1043.5C1003.99 1044.05 1012.66 1053.16 1023.25 1063.75C1033.84 1074.33 1042.74 1083 1043.03 1083C1043.33 1083 1052.55 1074.18 1063.53 1063.4L1083.5 1043.79C1052.5 1012.95 1043.28 1004.01 1043 1004.02C1042.72 1004.04 1033.83 1012.7 1023.24 1023.28Z" />
		<path id="Path 214" class="shp2" d="M1103.5 1024L1083.5 1044C1113.72 1074.23 1122.95 1083.01 1123.5 1083.01C1124.05 1083.01 1133.28 1074.23 1144 1063.5L1163.5 1043.99L1123.49 1003.99L1103.5 1024Z" />
		<path id="Path 215" class="shp0" d="M1183.49 1023.98L1163.5 1043.96C1194.11 1074.22 1203.34 1083 1203.75 1083C1204.16 1083 1213.16 1074.33 1223.75 1063.75C1234.34 1053.16 1243.01 1044.05 1243.01 1043.5C1243.02 1042.95 1234.35 1033.85 1223.76 1023.27C1213.17 1012.69 1204.27 1004.03 1203.99 1004.02C1203.71 1004.01 1194.49 1012.99 1183.49 1023.98Z" />
		<path id="Path 216" class="shp2" d="M1263.74 1023.75L1244 1043.5L1284.01 1083.5C1284 1021.89 1283.88 1004 1283.74 1004C1283.6 1004 1274.6 1012.89 1263.74 1023.75Z" />
		<path id="Path 217" class="shp0" d="M140.5 1103.76C129.51 1114.63 120.63 1123.85 120.76 1124.26C120.89 1124.67 138.78 1125 160.5 1125C182.22 1125 200 1124.66 200 1124.25C200 1123.84 191.11 1114.61 180.24 1103.75L160.48 1084L140.5 1103.76ZM461.5 1103.76C450.51 1114.63 441.63 1123.85 441.76 1124.26C441.89 1124.67 459.77 1125 481.5 1125C503.23 1125 521 1124.66 521 1124.25C521 1123.84 512.11 1114.61 501.24 1103.75L481.48 1084L461.5 1103.76ZM782.5 1103.76C771.51 1114.63 762.63 1123.85 762.76 1124.26C762.89 1124.67 780.77 1125 802.5 1125C824.23 1125 842 1124.66 842 1124.25C842 1123.84 833.11 1114.61 822.24 1103.75L802.48 1084L782.5 1103.76ZM1103.5 1103.76C1092.51 1114.63 1083.63 1123.85 1083.76 1124.26C1083.89 1124.67 1101.78 1125 1123.5 1125C1145.22 1125 1163 1124.66 1163 1124.25C1163 1123.84 1154.11 1114.61 1143.24 1103.75L1123.48 1084L1103.5 1103.76ZM0 1105L0 1125C38.73 1125 39.94 1124.89 39.08 1123.25C38.57 1122.29 29.91 1113.3 19.83 1103.28C9.75 1093.26 1.16 1085.05 0.75 1085.03C0.34 1085.01 0 1094 0 1105Z" />
		<path id="Path 218" class="shp2" d="M60 1104.26C49.28 1114.85 40.63 1123.85 40.76 1124.26C40.89 1124.67 58.77 1125 80.5 1125C102.22 1125 120 1124.66 120 1124.25C120 1123.84 111.34 1114.84 100.75 1104.25C90.16 1093.67 81.05 1085 80.49 1085C79.93 1085 70.71 1093.67 60 1104.26ZM220 1104.26C209.28 1114.85 200.63 1123.85 200.76 1124.26C200.89 1124.67 218.78 1125 240.5 1125C262.23 1125 280 1124.66 280 1124.25C280 1123.84 271.34 1114.84 260.75 1104.25C250.16 1093.67 241.05 1085 240.49 1085C239.93 1085 230.71 1093.67 220 1104.26Z" />
		<path id="Path 219" class="shp0" d="M300 1104.35C289.33 1115 280.69 1124 280.8 1124.35C280.91 1124.71 298.77 1125 320.5 1125C351.44 1125 360 1124.73 359.98 1123.75C359.97 1123.06 351.54 1114.06 341.23 1103.74C330.93 1093.42 321.8 1084.99 320.95 1084.99C320.09 1085 310.66 1093.71 300 1104.35Z" />
		<path id="Path 220" class="shp2" d="M381 1104.26C370.28 1114.85 361.63 1123.85 361.76 1124.26C361.89 1124.67 379.77 1125 401.5 1125C423.23 1125 441 1124.66 441 1124.25C441 1123.84 432.34 1114.84 421.75 1104.25C411.16 1093.67 402.05 1085 401.49 1085C400.93 1085 391.71 1093.67 381 1104.26ZM541 1104.26C530.28 1114.85 521.63 1123.85 521.76 1124.26C521.89 1124.67 539.77 1125 561.5 1125C583.23 1125 601 1124.66 601 1124.25C601 1123.84 592.34 1114.84 581.75 1104.25C571.16 1093.67 562.05 1085 561.49 1085C560.93 1085 551.71 1093.67 541 1104.26Z" />
		<path id="Path 221" class="shp0" d="M620.93 1104.75L601.5 1124.5C632.5 1124.92 650.73 1124.92 662 1124.77L682.5 1124.5C652.27 1093.85 642.79 1084.96 641.93 1084.98C641.07 1084.99 631.62 1093.89 620.93 1104.75Z" />
		<path id="Path 222" class="shp2" d="M702 1104.26C691.28 1114.85 682.63 1123.85 682.76 1124.26C682.89 1124.67 700.77 1125 722.5 1125C744.23 1125 762 1124.66 762 1124.25C762 1123.84 753.34 1114.84 742.75 1104.25C732.16 1093.67 723.05 1085 722.49 1085C721.93 1085 712.71 1093.67 702 1104.26ZM862 1104.26C851.28 1114.85 842.63 1123.85 842.76 1124.26C842.89 1124.67 860.77 1125 882.5 1125C904.23 1125 922 1124.66 922 1124.25C922 1123.84 913.34 1114.84 902.75 1104.25C892.16 1093.67 883.05 1085 882.49 1085C881.93 1085 872.71 1093.67 862 1104.26Z" />
		<path id="Path 223" class="shp0" d="M942.5 1103.8C932.08 1114.14 923.65 1123.14 923.77 1123.8C923.95 1124.71 933.6 1125 963.5 1125C985.23 1125 1002.98 1124.66 1002.97 1124.25C1002.95 1123.84 994.28 1114.83 983.72 1104.23C973.15 1093.63 963.81 1084.97 962.97 1084.98C962.13 1084.99 952.92 1093.46 942.5 1103.8Z" />
		<path id="Path 224" class="shp2" d="M1023 1104.26C1012.28 1114.85 1003.63 1123.85 1003.76 1124.26C1003.89 1124.67 1021.77 1125 1043.5 1125C1065.22 1125 1083 1124.66 1083 1124.25C1083 1123.84 1074.34 1114.84 1063.75 1104.25C1053.16 1093.67 1044.05 1085 1043.49 1085C1042.93 1085 1033.71 1093.67 1023 1104.26ZM1183 1104.26C1172.28 1114.85 1163.63 1123.85 1163.76 1124.26C1163.89 1124.67 1181.78 1125 1203.5 1125C1225.22 1125 1243 1124.66 1243 1124.25C1243 1123.84 1234.34 1114.84 1223.75 1104.25C1213.16 1093.67 1204.05 1085 1203.49 1085C1202.93 1085 1193.71 1093.67 1183 1104.26Z" />
		<path id="Path 225" class="shp0" d="M1263.26 1104.27C1252.67 1114.85 1244.01 1123.84 1244.01 1124.25C1244 1124.66 1253 1125 1264 1125L1284 1125C1284 1094 1283.66 1085.01 1283.25 1085.02C1282.84 1085.03 1273.84 1093.69 1263.26 1104.27Z" />
	</g>
</svg>