<svg xmlns="http://www.w3.org/2000/svg" viewBox="0 0 542 154" width="542" height="154">
	<style>
		tspan { white-space:pre }
		.shp0 { opacity: 0.953;fill: #fdfdfd } 
		.shp1 { fill: #010101 } 
		.shp2 { fill: #967e72 } 
		.shp3 { fill: #514742 } 
	</style>
	<g id="Background">
		<path id="Path 0" fill-rule="evenodd" class="shp0" d="M56.25 0.01C59.41 0 64.36 0.82 67.25 1.81C70.14 2.81 74.75 5.13 77.5 6.97C80.75 9.15 84.25 10.54 87.5 10.94C90.25 11.28 94.53 12.73 97 14.15C99.47 15.57 102.74 18.14 104.25 19.86C105.76 21.59 107.44 24.69 107.98 26.75C108.6 29.11 108.62 31.79 108.03 34C107.52 35.92 106.16 38.4 105.02 39.5C103.87 40.6 102.94 41.95 102.95 42.5C102.97 43.05 105.12 45.57 107.74 48.1C110.36 50.62 114.08 53.3 116 54.04C117.92 54.78 120.76 56.31 122.3 57.44C123.84 58.58 126.27 61.3 127.69 63.5C129.12 65.7 130.78 69.97 132.5 78.5L137 78.2C139.47 78.04 142.81 78.49 144.41 79.2C146 79.92 148.48 81.89 149.91 83.59C152.18 86.3 153.12 86.68 157.5 86.66C160.47 86.65 163.62 87.32 165.25 88.32C166.76 89.24 168.9 90.9 170 92C171.1 93.1 172.19 93.66 172.42 93.25C172.66 92.84 173.27 89.8 173.8 86.5C174.32 83.2 175.25 79.49 175.87 78.25C176.49 77.01 178.46 75.1 180.25 74C182.36 72.71 185.26 72.01 188.5 72.01C191.74 72.01 194.64 72.71 196.75 74C198.54 75.1 200.68 77.58 201.5 79.5C202.32 81.42 203 84.01 203 85.25C202.99 87.06 203.63 87.56 206.25 87.79C208.04 87.95 210.85 88.75 212.5 89.56C214.15 90.38 216.96 91.03 218.75 91.02C220.54 91.01 222 90.55 222 90C222 89.45 223.28 87.76 224.85 86.25C226.41 84.74 230.13 81.82 233.1 79.77C236.07 77.72 239.85 75.64 241.5 75.14C243.47 74.54 245.7 74.64 248 75.41C249.93 76.05 254.65 78.96 258.5 81.86C262.35 84.77 266.05 88.13 266.71 89.32C267.38 90.52 267.94 93.08 267.95 95C267.96 96.92 267.64 99.08 267.23 99.8C266.83 100.51 267.18 102.61 268 104.47C268.82 106.33 270.18 108.11 271 108.42C271.82 108.74 273.06 109.23 273.75 109.5C274.66 109.86 275 108.5 275 104.5C275 101.47 275.71 95.51 276.57 91.25C277.44 86.99 279.69 80.24 281.57 76.25C283.72 71.71 286.96 67.03 290.25 63.72C293.14 60.82 298.2 57.11 301.5 55.47C306.65 52.92 308.64 52.5 315.5 52.5C322.17 52.5 324.46 52.96 329.25 55.25C333.32 57.2 336.19 59.53 339.07 63.25C341.3 66.14 343.66 70.3 344.3 72.5C344.94 74.7 345.47 79.76 345.5 91L351.5 91.16C354.8 91.25 359.75 91.21 362.5 91.05C365.25 90.9 368.85 90.1 370.5 89.28C372.15 88.45 375.3 87.76 377.5 87.75C379.7 87.74 383.07 88.48 385 89.39C386.93 90.3 390.07 91.02 392 90.99C395.11 90.93 395.72 90.46 397.5 86.72C398.6 84.4 401.07 81.48 403 80.22C405.28 78.74 407.98 77.95 410.75 77.97C413.09 77.99 416.24 78.63 417.75 79.4C419.26 80.18 421.46 81.87 422.63 83.15C423.8 84.44 425.26 87.19 427 93L430.25 91.36C432.81 90.08 434.99 89.87 440.5 90.41C444.35 90.78 449.3 91.9 451.5 92.88C453.7 93.87 456.06 95.42 456.75 96.34C457.89 97.85 458.52 97.68 463.75 94.49C468.58 91.53 470.42 90.97 475.25 90.99C478.97 90.99 482.41 91.7 485 93C488.97 94.98 489.04 94.98 493.25 93.07C496.7 91.5 499.87 91.12 510 91.08C520.95 91.03 522.84 91.27 525.25 93.01C526.76 94.1 528.67 96.35 529.5 98C530.33 99.65 531 102.35 531 104C531 106.27 531.66 107.33 533.75 108.37C535.26 109.12 537.74 111.14 539.25 112.87C541.18 115.07 542.01 117.11 542.03 119.75C542.05 122.15 540.64 126.38 538.11 131.5C535.93 135.9 532.32 141.64 530.08 144.25C527.46 147.3 524.66 149.41 522.25 150.13C520.12 150.77 516.55 150.97 514 150.59C511.52 150.23 509.05 149.94 508.5 149.96C507.95 149.98 504.8 150.29 501.5 150.65C496.52 151.19 494.74 150.93 486.5 146.97L482 148.96C479.46 150.09 475.32 150.96 472.5 150.96C469.75 150.96 465.7 150.14 463.5 149.14C461.3 148.14 458.94 146.57 458.25 145.66C457.11 144.15 456.57 144.29 452.25 147.25C447.93 150.21 446.82 150.5 440 150.5C434.72 150.5 431.32 149.94 428.5 148.61C424.53 146.73 424.47 146.73 421 148.83C418.87 150.11 415.74 150.95 413 150.98C410.49 151 406.95 150.2 405 149.18C401.58 147.38 401.4 147.38 397.5 149.29C394.64 150.69 392.03 151.14 388.35 150.87C385.07 150.64 382.08 149.68 377 146L373.92 148.25C371.54 149.99 369.55 150.48 365.17 150.42C362.05 150.38 358.6 150.27 357.5 150.17C356.4 150.07 352.57 150.25 349 150.57C343.4 151.08 341.88 150.83 333.5 146.4L328.5 149.14C325.75 150.65 321.02 152.26 318 152.72C314.98 153.18 310.25 153.28 307.5 152.94C304.75 152.61 300.25 151.24 297.5 149.91C294.75 148.59 290.25 145.23 287.5 142.46C284.75 139.69 281.62 135.42 280.55 132.96C279.48 130.51 278.47 128.39 278.3 128.25C278.14 128.11 276.05 129.91 273.66 132.25C271.28 134.59 266.89 138.79 263.91 141.59C260.94 144.38 257.15 147.53 255.5 148.57C253.25 150 250.64 150.48 245 150.49C239.35 150.5 236.51 149.99 229.5 146.36L225.5 148.67C223.07 150.07 219.84 150.97 217.25 150.98C214.91 150.99 211.54 150.39 209.75 149.65C207.96 148.92 205.94 147.57 205.25 146.65C204.11 145.14 203.64 145.24 199.81 147.75C196.95 149.62 193.99 150.6 190.56 150.82C187.05 151.03 184.42 150.56 182 149.27C178.63 147.48 178.35 147.48 174.5 149.18C172.26 150.17 168.08 150.95 165 150.95C161.61 150.95 157.87 150.2 155.25 148.98C151.01 147.01 150.99 147.01 147.75 149C145.85 150.17 142.74 150.99 140.25 151C137.91 151 134.54 150.39 132.75 149.64C130.96 148.89 128.71 147.31 126 144L121.75 146.93C119.41 148.55 115.47 150.59 113 151.49C110.53 152.38 105.8 153.12 102.5 153.13C99.2 153.13 94.7 152.53 92.5 151.79C89.12 150.65 88.04 150.65 85.5 151.83C83.85 152.6 80.92 153.24 79 153.25C77.08 153.26 73.92 152.79 72 152.2C70 151.58 66.57 149.03 64 146.26C61.04 143.07 58.81 139.36 57.5 135.45C55.92 130.75 55.51 126.98 55.57 117.5C55.61 110.9 56.16 103.7 56.79 101.5C57.68 98.41 57.66 97.32 56.72 96.72C56.05 96.29 53.7 96.18 51.5 96.48C49.3 96.78 44.8 97.29 41.5 97.62C36.46 98.12 34.71 97.84 30.57 95.86C27.86 94.56 23.86 91.7 21.67 89.5C19.49 87.3 16.88 83.7 15.87 81.5C14.87 79.3 14.03 76.15 14 74.5C13.97 72.49 12.67 70.01 10.08 67C7.94 64.53 4.97 59.8 3.46 56.5C1.38 51.92 0.74 48.96 0.74 44C0.75 40.42 1.49 35.25 2.4 32.5C3.31 29.75 5.61 25.36 7.52 22.75C9.44 20.14 13.14 16.64 15.75 14.97C18.36 13.31 22.07 11.51 24 10.98C25.93 10.45 29.3 10.02 31.5 10.03C34.55 10.05 36.09 9.42 38 7.39C39.38 5.93 42.75 3.67 45.5 2.38C48.93 0.76 52.31 0.02 56.25 0.01ZM308.19 117.75C308.85 119.26 310.31 121.52 311.44 122.78C312.59 124.05 314.6 125.02 316 124.99C317.5 124.95 319.8 123.54 321.75 121.46C323.54 119.56 325 117.33 325 116.5C325 115.35 323.72 115 319.5 115C316.48 115 312.39 114.35 310.42 113.55C307.3 112.29 306.86 112.29 306.92 113.55C306.97 114.35 307.54 116.24 308.19 117.75Z" />
		<path id="Path 1" class="shp1" d="M48.5 9.43C46.85 10.18 43.92 11.97 42 13.41C39.2 15.51 37.41 16.03 33 16C28.57 15.98 26.58 16.56 22.75 18.99C20.14 20.64 16.72 23.91 15.16 26.25C13.6 28.59 11.79 32.08 11.14 34C10.5 35.92 9.99 39.98 10.03 43C10.06 46.02 10.64 50.08 11.31 52C11.99 53.92 14.16 57.75 16.13 60.5C18.67 64.03 19.9 66.97 20.32 70.5C20.72 73.95 21.8 76.59 23.79 79C25.38 80.92 28.22 83.53 30.09 84.8C31.97 86.06 35.3 87.61 37.5 88.23C40.75 89.15 42.25 89.06 45.5 87.79C48.81 86.5 50.02 86.44 52.5 87.46C54.15 88.14 56.96 89.89 58.75 91.35C60.54 92.81 62.34 94.01 62.75 94.01C63.16 94.02 64.68 91.66 66.13 88.76C67.57 85.87 70.94 80.6 73.63 77.06C76.31 73.52 80.97 68.56 84 66.04C87.03 63.51 92.05 59.89 95.17 57.98L100.83 54.5C95.5 48.3 93.97 45.94 93.98 45.25C93.99 44.56 95.18 42.54 96.62 40.75C98.86 37.97 99.15 36.85 98.66 33C98.25 29.72 97.2 27.6 94.8 25.16C92.98 23.33 90.38 21.25 89 20.55C87.63 19.84 84.92 19 83 18.67C81.08 18.35 76.8 16.28 73.5 14.08C70.2 11.88 65.92 9.61 64 9.04C62.08 8.47 58.48 8.02 56 8.04C53.52 8.06 50.15 8.69 48.5 9.43Z" />
		<path id="Path 2" fill-rule="evenodd" class="shp0" d="M60 11.62C62.48 11.92 66.91 13.37 69.85 14.84C74.01 16.91 75.07 17.89 74.6 19.25C74.08 20.76 74.66 21 78.75 21C81.52 20.99 84.96 21.78 87 22.89C88.92 23.93 91.3 26.29 92.28 28.14C93.36 30.19 93.82 32.48 93.45 34C93.12 35.38 91.87 37.52 90.68 38.78C89.48 40.03 88.05 41.04 87.5 41.04C86.95 41.03 84.03 42.17 81 43.57C77.73 45.08 74.59 45.89 73.25 45.56C71.77 45.19 70.7 43.89 69.26 38.5L68.27 41C67.72 42.38 67 45.52 66.66 48C66.25 51.01 65.13 53.43 63.27 55.32C61.75 56.87 59.38 58.39 58 58.7C56.63 59.01 53.7 58.99 51.5 58.65C49.3 58.31 46.7 57.23 45.72 56.26C44.58 55.14 43.95 54.95 43.97 55.75C43.99 56.44 46.04 58.46 48.52 60.25C51.01 62.04 53.26 64.06 53.52 64.75C53.79 65.44 52.76 69.22 51.25 73.15C49.47 77.77 47.5 81.04 45.68 82.4C43.73 83.85 41.56 84.45 38.68 84.33C35.87 84.21 33.22 83.23 30.6 81.33C28.46 79.77 25.85 76.92 24.81 75C23.45 72.51 23.01 70.06 23.27 66.5C23.47 63.75 24.05 60.7 24.57 59.73C25.35 58.25 25.17 58.06 23.5 58.59C22.03 59.04 20.94 58.45 19.4 56.36C18.25 54.78 16.78 51.92 16.14 50C15.49 48.08 14.98 44.92 14.99 43C15.01 41.08 16.07 37.25 17.34 34.5C18.74 31.5 21.84 27.58 25.08 24.7C28.53 21.65 31.77 19.7 34 19.33C35.92 19.01 39.08 19.24 41 19.82C42.92 20.41 45.28 21.7 46.24 22.69C47.2 23.69 48.64 26.3 49.45 28.5C50.86 32.37 50.91 32.4 50.95 29.5C50.97 27.85 50.1 25.15 49.01 23.5C47.92 21.85 46.46 19.72 45.76 18.77C44.73 17.35 44.77 16.76 46 15.51C46.83 14.67 49.3 13.33 51.5 12.52C53.98 11.62 57.21 11.27 60 11.62ZM86.5 45.94C88.15 45.93 90.04 46.6 90.7 47.44C91.37 48.29 91.71 49.66 91.45 50.49C91.2 51.32 89.88 52.23 88.5 52.5C87.13 52.77 86 53.45 86 54C86 54.55 87.24 55.03 88.75 55.06C91.26 55.11 91.34 55.22 89.64 56.31C88.62 56.96 85.72 58.85 83.19 60.5C80.67 62.15 75.88 66.77 72.55 70.76C67.79 76.48 66.38 77.65 65.93 76.26C65.44 74.71 65.17 74.8 61.98 79.5L62.04 77C62.08 74.73 61.94 74.64 60.4 76C58.85 77.39 58.78 77.23 59.53 74C60.14 71.41 60.04 70.69 59.17 71.25C58.53 71.66 57.12 73.69 56.04 75.75C54.97 77.81 54.07 78.83 54.05 78C54.04 77.17 55.05 74.25 56.32 71.5C57.59 68.75 61.96 62.99 66.06 58.68C70.6 53.91 75.45 49.91 78.5 48.42C81.25 47.07 84.85 45.96 86.5 45.94Z" />
		<path id="Path 3" class="shp1" d="M100 63.03C97.53 63.42 93.25 64.87 90.5 66.26C87.75 67.65 83.04 71.42 80.02 74.64C76.55 78.36 73.19 83.42 70.83 88.5C68.78 92.9 66.43 99.42 65.59 103C64.75 106.58 63.77 112.65 63.41 116.5C63.02 120.74 63.24 125.87 63.97 129.5C64.64 132.8 66.21 137.3 67.46 139.5C68.71 141.7 71.03 144.36 72.62 145.41C74.2 146.45 77.15 147.35 79.17 147.41C81.76 147.47 83.53 146.82 85.17 145.19L87.5 142.87C95.2 146.7 98.23 147.33 102.5 147.3C105.8 147.27 110.19 146.52 112.25 145.63C114.31 144.73 117.65 142.54 119.67 140.75C121.69 138.96 124.6 134.8 126.13 131.5C127.97 127.53 128.92 126.26 128.95 127.75C128.98 128.99 129.44 132.14 129.98 134.75C130.58 137.65 132.04 140.58 133.73 142.29C135.87 144.44 137.41 145.06 140.5 145.02C143.75 144.98 145.21 144.27 148.26 141.24L152.02 137.5C154.33 140.99 156.35 142.68 158 143.5C159.65 144.32 163.03 145 165.5 145C167.97 145 171.24 144.37 172.75 143.6C174.26 142.84 176.29 141.26 177.25 140.1L179 138C184.89 144.27 186.26 144.93 189.5 144.96C191.8 144.98 194.88 144.15 196.75 143C198.54 141.9 201.45 138.86 203.23 136.25C205.83 132.43 206.52 131.89 206.77 133.5C206.94 134.6 207.29 136.51 207.54 137.75C207.79 138.99 209.24 141.14 210.75 142.53C212.81 144.43 214.56 145.06 217.75 145.03C221.3 145.01 222.7 144.35 226.25 141.03L230.5 137.06C232.96 140.5 235.32 142.29 237.34 143.25C239.35 144.21 243.14 145 245.75 144.99C248.83 144.99 251.56 144.28 253.5 142.99C255.15 141.89 258.33 139.08 260.56 136.74C262.8 134.41 265.72 131.79 267.06 130.92C268.4 130.06 270.32 127.58 271.33 125.42C273.15 121.51 273.15 121.49 270.83 119.22C269.55 117.97 267.49 116.96 266.25 116.97C264.48 116.99 263.8 116.21 263.05 113.25C262.53 111.19 261.18 108.26 260.05 106.75C258.17 104.23 258.13 103.79 259.5 101.5C260.32 100.13 261.02 98.21 261.04 97.25C261.07 96.22 258.2 93.35 254.04 90.25C250.17 87.36 246.1 85 245 85C243.9 85 239.85 87.36 235.99 90.25C231.43 93.66 228.98 96.2 228.97 97.5C228.96 98.6 230.09 100.63 231.48 102C233.97 104.46 233.98 104.53 232.12 106.5C231.08 107.6 229.51 109.96 228.62 111.75C227.73 113.54 226.8 114.89 226.56 114.75C226.32 114.61 226.55 112.59 227.06 110.25C227.67 107.5 227.65 105.29 227 104C226.45 102.9 224.88 101.55 223.5 101C221.91 100.36 219.64 100.34 217.25 100.92C214.11 101.7 213.17 101.53 211.5 99.92C210.4 98.86 208.49 97.77 207.25 97.5C206.01 97.22 203.54 97.68 201.75 98.52C199.96 99.36 197.71 100.03 196.75 100.02C195.17 100 195.07 99.26 195.75 92.63C196.35 86.71 196.2 84.92 195 83.58C194.03 82.5 192 81.93 189.25 81.96C185.95 81.99 184.69 82.5 183.6 84.25C182.84 85.49 181.94 89.54 181.6 93.25C181.27 96.96 180.58 100 180.07 100C179.56 100 178.44 100.67 177.57 101.5C176.65 102.37 176 104.67 176 107C176 109.67 176.5 111.17 177.5 111.5C178.32 111.78 179 112.67 179 113.5C179 114.6 177.47 114.06 173.25 111.49C170.09 109.55 167.16 107.98 166.75 107.99C166.34 107.99 166.11 106.44 166.25 104.52C166.43 102.02 165.87 100.42 164.22 98.77C162.71 97.26 160.75 96.5 158.39 96.5C155.76 96.5 154.2 97.22 152.41 99.25C150.85 101.04 150 103.23 150 105.5C150 107.42 150.45 109.9 151 111C151.78 112.56 151.33 114.33 149 119C147.35 122.3 145.55 125.22 145 125.5C144.35 125.83 144.19 121.59 144.54 113.25C144.83 106.24 145.52 100.05 146.05 99.5C146.59 98.95 147.03 97.26 147.02 95.75C147.01 94.17 145.94 91.94 144.5 90.5C142.88 88.88 140.86 87.99 138.75 87.97C136.66 87.96 134.7 88.76 133.27 90.22C132.05 91.48 131.03 93.74 131.02 95.25C131.01 96.76 131.45 98.9 132 100C132.59 101.19 132.64 102.51 132.11 103.25C131.62 103.94 130.61 107.14 129.86 110.36C129.11 113.59 128.28 116.38 128 116.56C127.72 116.74 126.75 115.23 125.84 113.2C124.93 111.16 122.23 107.8 119.84 105.73C117.45 103.65 115.16 101.97 114.75 101.98C114.34 101.99 115.64 99.86 117.65 97.25C119.65 94.64 121.9 91.04 122.65 89.25C123.39 87.46 124 83.75 124 81C124 78.25 123.52 74.76 122.94 73.25C122.35 71.74 120.66 69.25 119.19 67.72C117.71 66.2 115.15 64.55 113.5 64.07C111.85 63.58 109.15 62.99 107.5 62.75C105.85 62.51 102.47 62.64 100 63.03ZM311 63.13C308.52 63.61 304.09 65.68 301.13 67.75C297.9 70.01 294.2 73.88 291.82 77.5C289.65 80.8 287 86.42 285.92 90C284.84 93.58 283.68 99.88 283.35 104C282.99 108.37 283.24 114.42 283.95 118.5C284.62 122.35 286.36 127.92 287.83 130.87C289.3 133.83 292.41 137.99 294.75 140.12C297.09 142.26 300.69 144.74 302.75 145.66C304.84 146.58 309.16 147.33 312.5 147.34C316.91 147.37 319.96 146.69 324 144.8C327.02 143.38 330.63 141.1 332 139.72L334.5 137.22C340.9 143.54 342.44 144.22 347 144.66C351.56 145.1 352.97 144.83 355.25 143.09L358 141C360.89 144.35 362.72 145.07 365 145.07C367.23 145.07 369.43 144.24 371.06 142.78C372.47 141.53 374.93 138.47 376.52 136C378.86 132.36 379.48 131.88 379.75 133.5C379.93 134.6 380.29 136.51 380.54 137.75C380.79 138.99 382.24 141.14 383.75 142.53C385.81 144.43 387.56 145.06 390.75 145.03C394.32 145.01 395.68 144.36 399.25 140.97C401.59 138.76 403.61 136.96 403.75 136.97C403.89 136.99 403.98 137.56 403.96 138.25C403.94 138.94 405.18 140.75 406.71 142.29C408.86 144.44 410.42 145.06 413.5 145.02C416.76 144.98 418.17 144.28 421.16 141.24L424.83 137.5C432.49 143.89 434.21 144.57 438.86 144.91C443.52 145.25 445.19 144.9 448.43 142.91C450.59 141.58 453.52 139.02 454.93 137.2C456.34 135.39 457.73 133.93 458 133.95C458.27 133.98 459.06 135.35 459.75 137C460.44 138.65 462.69 141.13 464.75 142.5C467.29 144.2 469.87 145.01 472.75 145C475.09 145 478.24 144.52 479.75 143.94C481.26 143.35 483.74 141.66 485.25 140.19L488.01 137.5C494.57 143.93 496 144.56 500.32 144.84C504.39 145.11 506.09 144.74 508.25 143.09L511 141C513.93 144.41 515.69 145.05 518.17 145.03C520.82 145.01 522.63 144.22 524.67 142.21C526.23 140.68 529.16 136.52 531.2 132.96C533.23 129.41 535.2 125.15 535.57 123.5C536.13 121.05 535.82 120.18 533.88 118.74C532.57 117.78 530.6 116.99 529.5 117.01C528.4 117.02 526.5 118.26 525.29 119.76L523.07 122.5C523.03 118.63 523.46 114.69 524.01 111.25C524.67 107.09 524.66 104.33 524 103C523.45 101.9 521.99 100.74 520.75 100.43C519.51 100.11 516.92 100.48 515 101.24C512.09 102.39 511.04 102.4 508.75 101.31C506.98 100.47 504.66 100.25 502.25 100.7C500.19 101.09 497.17 102.33 495.55 103.45C493.92 104.58 491.63 106.85 490.46 108.5L488.33 111.5C486.64 106.08 484.88 103.65 483.33 102.62C481.76 101.58 478.71 100.73 476.5 100.71C474.3 100.7 471.15 101.37 469.5 102.2C467.85 103.04 465.03 105.47 463.24 107.61C461.45 109.75 459.99 112.06 459.99 112.75C460 113.44 459.66 113.98 459.25 113.96C458.84 113.94 457.6 112.03 456.5 109.72C455.4 107.4 452.93 104.48 451 103.22C449.07 101.97 446.15 100.96 444.5 100.99C442.85 101.01 441.05 100.59 440.5 100.04C439.86 99.41 438.23 99.38 436 99.97C433.89 100.52 430.81 102.7 428.25 105.44C425.08 108.85 423.51 111.71 422.07 116.75C421.01 120.46 419.43 124.17 418.57 125C417.15 126.36 417.06 125.28 417.54 113.5C417.84 106.35 418.52 100.05 419.05 99.5C419.59 98.95 420.03 97.26 420.02 95.75C420.01 94.17 418.94 91.94 417.5 90.5C415.88 88.88 413.86 87.99 411.75 87.97C409.66 87.96 407.7 88.76 406.27 90.22C405.05 91.48 404.03 93.74 404.02 95.25C404.01 96.76 404.45 98.9 405 100C405.59 101.19 405.64 102.51 405.11 103.25C404.62 103.94 403.61 107.19 402.86 110.47C402.11 113.75 400.73 117.35 399.78 118.47C398.49 120 398.06 120.13 398.05 119C398.04 118.17 398.7 114.91 399.52 111.75C400.56 107.7 400.7 105.41 400 104C399.45 102.9 397.88 101.55 396.5 101C394.93 100.37 392.61 100.34 390.25 100.9C387.05 101.67 386.17 101.49 384.22 99.65C382.75 98.26 380.71 97.52 378.45 97.55C376.33 97.58 374.08 98.43 372.73 99.69C370.91 101.4 370.04 101.6 368 100.78C366.17 100.04 364.56 100.15 362 101.2C359.08 102.39 358.05 102.41 355.75 101.31C353.98 100.47 351.66 100.25 349.25 100.7C347.19 101.09 344.15 102.35 342.5 103.5C340.85 104.65 338.47 107.15 337.2 109.05C335.94 110.95 334.5 114.08 334.01 116C333.52 117.92 331.59 121.75 329.72 124.5C327.85 127.25 324.79 130.53 322.91 131.78C320.99 133.06 317.98 134.06 316 134.06C314.03 134.06 310.99 133.06 309.06 131.78C307.17 130.52 304.47 127.26 303.06 124.53C300.88 120.28 300.44 117.93 300.11 108.53C299.79 99.25 300.09 96.31 301.97 90C303.75 84.07 305.11 81.61 308.48 78.25C311.67 75.06 313.52 74 315.87 74C317.59 74 319.68 74.67 320.5 75.5C321.32 76.33 322.29 78.24 322.64 79.75C322.99 81.26 322.99 84.86 322.64 87.75C322.29 90.64 321.44 94.11 320.75 95.46C320.06 96.81 319.16 97.71 318.75 97.46C318.34 97.21 318 96.21 318 95.25C317.99 94.29 318.89 91.81 320 89.75C321.1 87.69 322 85.1 322 84C322 82.9 320.88 81.1 319.5 80C317.19 78.15 316.77 78.12 314 79.5C312.35 80.33 309.88 82.69 308.5 84.75C307.13 86.81 305.72 90.75 305.37 93.5C304.88 97.33 305.17 99.4 306.62 102.37C307.65 104.49 309.85 107.07 311.5 108.09C313.15 109.1 316.19 109.95 318.25 109.97C320.31 109.99 323.24 109.52 324.75 108.94C326.26 108.35 328.79 106.66 330.38 105.19C331.96 103.71 334.32 100.25 335.62 97.5C337.33 93.87 337.99 90.72 338 86C338.02 81.11 337.42 78.26 335.58 74.5C334.14 71.54 331.59 68.41 329.32 66.81C327.22 65.34 324.15 63.87 322.5 63.56C320.86 63.25 318.61 62.84 317.5 62.63C316.4 62.43 313.48 62.66 311 63.13Z" />
		<path id="Path 4" class="shp2" d="M310.81 65.88C309.32 66.33 306.85 67.39 305.31 68.23C303.76 69.08 300.59 71.85 298.25 74.39C295.91 76.92 293.15 80.69 292.1 82.75C291.06 84.81 289.42 89.2 288.46 92.5C287.36 96.26 286.69 102.05 286.66 108C286.63 114 287.21 119.52 288.24 123C289.13 126.03 291.36 130.69 293.18 133.37C295.37 136.58 298.38 139.3 302 141.33C306.46 143.84 308.63 144.42 313.5 144.4C318.23 144.39 320.64 143.76 324.88 141.44C327.84 139.82 331.55 137.04 333.13 135.25C334.71 133.46 336.17 132.11 336.37 132.25C336.58 132.39 337.48 133.96 338.37 135.75C339.27 137.54 341.35 139.68 343 140.5C344.65 141.32 347.35 142 349 142C350.99 142 353.19 140.91 355.53 138.75C357.48 136.96 359.16 135.72 359.28 136C359.4 136.28 359.95 137.34 360.5 138.37C361.05 139.4 362.18 140.7 363 141.26C363.82 141.81 365.74 141.98 367.25 141.63C369.2 141.18 371.17 139.19 374.04 134.75C376.27 131.31 379.53 124.96 381.29 120.64C384.09 113.78 385.01 112.52 388.5 110.71C391.38 109.22 392.31 109.04 391.82 110.07C391.44 110.86 389.53 115.1 387.58 119.5C384.99 125.34 384.02 128.92 384.01 132.75C384 136.68 384.5 138.5 386 140C387.1 141.1 389.24 142 390.75 142.01C392.26 142.01 394.61 141.22 395.96 140.26C397.32 139.29 400.14 135.8 402.24 132.5L406.05 126.5C406.01 132.31 406.68 135.57 407.5 137.5C408.37 139.53 409.94 141.26 411.25 141.61C412.49 141.94 414.74 141.94 416.25 141.61C418.12 141.19 420.04 139.39 422.25 135.96L425.5 130.92C428.99 136.41 431.46 138.9 433.25 140C435.3 141.25 438.26 141.99 441.25 142C445.35 142 446.55 141.49 450.06 138.25C452.29 136.19 454.3 133.82 454.54 133C454.77 132.18 456.27 131.05 457.86 130.5C460.58 129.56 460.81 129.69 461.45 132.5C461.83 134.15 463.68 136.96 465.57 138.75C468.26 141.3 469.86 142 473 142C475.2 142 478.24 141.38 479.75 140.63C481.26 139.87 483.96 137.62 485.75 135.63C487.54 133.63 489.23 132 489.5 132C489.77 132 490 132.68 490 133.5C490 134.32 491.57 136.57 493.5 138.5C496.36 141.36 497.75 142 501.1 142C504.38 142 505.86 141.35 508.5 138.75L511.8 135.5C514.68 141.34 515.61 142 518 142C519.97 142 521.89 141.06 523.61 139.25C525.04 137.74 527.74 133.46 529.61 129.75C532.4 124.18 532.78 122.73 531.75 121.46C531.06 120.61 530.27 119.91 530 119.92C529.73 119.92 528.94 121.18 528.26 122.71C527.57 124.24 525.66 127.64 524.01 130.25C522.35 132.86 520.55 135 520 135C519.44 135 519.01 132.26 519.02 128.75C519.03 125.31 519.69 118.9 520.48 114.5C521.28 110.1 521.95 105.94 521.97 105.25C521.99 104.52 520.75 104 519 104C517.35 104 515.21 104.83 514.25 105.84C512.55 107.62 512.43 107.62 510 105.8C508.63 104.76 506.15 103.92 504.5 103.93C502.85 103.94 499.93 104.99 498 106.27C496.07 107.55 493.47 110.15 492.21 112.05C490.94 113.95 489.62 117.3 489.26 119.5C488.9 121.7 487.23 125.49 485.55 127.93C483.87 130.36 481.38 133.2 480 134.22C477.97 135.73 476.98 135.89 474.75 135.04C473.03 134.39 471.4 132.6 470.39 130.25C469.31 127.73 468.9 124.48 469.14 120.33C469.39 116.04 470.14 113.3 471.61 111.33C472.77 109.77 474.34 108.5 475.11 108.5C476.07 108.5 476.5 109.77 476.5 112.67C476.5 114.96 476.73 117.11 477 117.44C477.27 117.78 478.63 117.59 480 117.02C481.38 116.45 483.11 114.98 483.86 113.75C484.61 112.51 484.98 110.38 484.68 109C484.38 107.63 482.98 105.94 481.57 105.25C480.16 104.56 477.88 104 476.5 104C475.13 104 472.76 104.61 471.25 105.37C469.74 106.12 467.22 108.26 465.65 110.12C464.08 111.98 462.28 115.43 461.65 117.78C461.02 120.13 459.72 123.06 458.77 124.28C457.07 126.47 457.04 126.43 457 121.5C456.98 118.71 456.08 114.62 454.98 112.25C453.89 109.91 451.54 107.09 449.75 105.97C447.5 104.56 445.5 104.1 443.25 104.47C441.39 104.77 440 104.57 440 104C440 103.45 439.04 103 437.87 103C436.69 103 433.83 104.91 431.48 107.25C428.9 109.83 426.81 113.07 426.16 115.5C425.57 117.7 424.86 120.63 424.57 122C424.29 123.38 422.58 126.72 420.78 129.43C418.98 132.14 416.94 134.51 416.25 134.68C415.48 134.88 414.8 133.57 414.48 131.25C414.19 129.19 414.36 122.55 414.86 116.5C415.35 110.45 415.59 105.16 415.38 104.75C415.17 104.34 413.99 104.01 412.75 104.02C411.51 104.02 409.94 104.36 409.25 104.77C408.56 105.17 407.27 108.2 406.39 111.5C405.51 114.8 403.76 119.75 402.52 122.5C401.27 125.25 398.77 129.53 396.96 132C394.02 136.01 393.59 136.28 392.95 134.5C392.55 133.4 392.42 131.15 392.67 129.5C392.91 127.85 394.33 121.89 395.81 116.25C397.99 107.95 398.26 105.77 397.22 104.75C396.22 103.77 394.83 103.75 390.72 104.66C385.71 105.78 385.43 105.73 383.75 103.41C382.57 101.79 381.02 101 379 101C376.87 101 375.57 101.72 374.5 103.5C373.17 105.72 373.17 106.28 374.5 108.5C375.32 109.88 376.68 111.22 377.5 111.5C378.32 111.78 379 112.67 379 113.5C379 114.33 376.75 119.5 374 125C371.25 130.5 368.44 135 367.75 135C366.78 135.01 366.67 132.41 367.28 123.25C367.71 116.79 368.27 109.81 368.53 107.75C368.95 104.39 368.77 104 366.75 103.99C365.51 103.99 363.49 104.66 362.25 105.49C360.25 106.83 359.67 106.83 357 105.5C355.35 104.67 352.88 104 351.5 104C350.13 104 347.65 104.67 346 105.5C344.35 106.33 341.9 108.46 340.56 110.25C339.22 112.04 337.4 116.2 336.51 119.5C335.62 122.8 334.06 126.63 333.04 128C332.02 129.38 329.9 131.71 328.34 133.2C326.78 134.68 323.7 136.62 321.5 137.52C318.94 138.55 316.42 138.89 314.5 138.45C312.85 138.07 310.26 137.14 308.75 136.38C307.24 135.62 304.63 133.09 302.95 130.75C301.27 128.41 299.03 123.58 297.97 120C296.84 116.22 296.02 110.47 296.02 106.25C296.01 102 296.86 95.79 298.08 91.25C299.23 86.99 300.65 82.6 301.24 81.5C301.83 80.4 303.48 77.98 304.91 76.12C306.33 74.26 309.17 71.86 311.22 70.79C313.73 69.46 316 69.01 318.22 69.39C320.02 69.69 322.44 70.97 323.59 72.22C324.74 73.48 326.27 76.08 327 78C327.75 80 328.12 83.64 327.86 86.5C327.62 89.25 326.31 93.75 324.96 96.5C323.12 100.23 321.87 101.58 320 101.83C318.42 102.04 317.03 101.48 316.23 100.33C315.54 99.32 314.99 96.7 315.02 94.5C315.04 92.25 316.03 88.86 317.28 86.75C319.11 83.66 319.27 82.77 318.19 81.75C317.12 80.74 316.21 81.22 313.44 84.25C311.55 86.31 309.59 89.69 309.08 91.75C308.52 94.03 308.52 96.77 309.08 98.75C309.59 100.54 311.24 102.92 312.75 104.03C314.44 105.29 317.04 106.07 319.5 106.06C321.96 106.06 324.84 105.18 327 103.78C329.1 102.41 331.63 99.3 333.32 96C335.73 91.3 336.09 89.54 335.82 83.93C335.58 78.91 334.91 76.5 333 73.72C331.63 71.72 328.93 69.17 327 68.06C325.07 66.95 321.25 65.82 318.5 65.55C315.75 65.28 312.29 65.43 310.81 65.88ZM93.5 68.84C89.57 70.69 85.82 73.54 82.65 77.08C79.98 80.06 76.29 85.65 74.45 89.5C72.6 93.35 70.18 100.33 69.05 105C67.93 109.67 67.01 116.42 67.02 120C67.02 123.58 67.7 128.97 68.53 132C69.48 135.46 71.24 138.72 73.27 140.79C75.42 142.98 77.42 144.07 79.25 144.04C80.76 144.02 82.9 143.1 84 142C85.1 140.9 86.47 138.76 87.05 137.25L88.11 134.5C89.96 138.23 91.63 140.17 93 141.21C94.38 142.26 97.53 143.39 100 143.71C102.66 144.06 106.53 143.73 109.46 142.9C112.53 142.03 116.1 139.97 118.8 137.5C122.22 134.37 123.48 132.3 124.57 128C125.68 123.59 125.72 121.61 124.77 118C124.05 115.27 122.2 112.1 120.04 109.94C117.94 107.83 114.37 105.7 111.25 104.69L106 103C112.2 98.35 115.28 95.09 116.86 92.75C118.43 90.41 120.28 86.7 120.97 84.5C121.72 82.11 121.93 79.09 121.5 77C121.1 75.08 120.04 72.47 119.14 71.2C118.24 69.94 115.81 68.25 113.75 67.45C111.69 66.65 107.64 66 104.75 66C101.06 66 97.71 66.85 93.5 68.84Z" />
		<path id="Path 5" class="shp1" d="M95.5 71.85C93.3 72.84 89.8 75.64 87.73 78.08C85.65 80.51 83.97 82.84 83.98 83.25C83.99 83.66 85.13 83.55 86.5 83C88.67 82.13 89.07 82.3 89.57 84.25C89.88 85.49 90.36 91.9 90.65 98.5L91.17 110.5C95.19 104.26 96.76 102.99 98.25 102.98C99.64 102.97 102.44 100.96 105.55 97.73C109.31 93.84 110.93 91.22 111.87 87.5C112.56 84.75 112.87 80.81 112.56 78.75C112.19 76.24 111.01 74.17 109 72.5C107.13 70.94 104.77 70.01 102.75 70.02C100.96 70.03 97.7 70.86 95.5 71.85Z" />
		<path id="Path 6" class="shp0" d="M96.18 76.35C94.35 77.09 92.44 78.44 91.93 79.35C91.37 80.34 91.36 81.7 91.9 82.75C92.4 83.71 93.1 86.75 93.46 89.5C93.82 92.25 94.31 95.51 94.55 96.75C94.8 97.99 95.67 99 96.5 99C97.33 99 99.43 97.76 101.17 96.25C102.92 94.74 105.16 91.7 106.15 89.5C107.14 87.3 107.97 84.15 108 82.5C108.02 80.85 107.46 78.72 106.77 77.76C106.07 76.81 104.15 75.8 102.5 75.51C100.85 75.23 98.01 75.61 96.18 76.35Z" />
		<path id="Path 7" class="shp3" d="M327.31 84.5C327.32 87.8 327.5 88.92 327.72 87C327.94 85.08 327.94 82.38 327.71 81C327.49 79.63 327.3 81.2 327.31 84.5Z" />
		<path id="Path 8" fill-rule="evenodd" class="shp2" d="M189.37 86.02C192 86.04 192.47 86.4 192.3 88.27C192.18 89.5 191.85 93.54 191 104L195.5 104C199.33 104 200 104.3 200 106C200 107.67 199.33 108 196 108C193.8 108 191.81 108.34 191.58 108.75C191.35 109.16 190.85 113.33 190.47 118C190.04 123.32 190.19 128.09 190.89 130.75C191.5 133.09 192.56 135.02 193.25 135.05C193.94 135.07 196.17 132.71 198.21 129.8C200.25 126.88 202.95 121.92 206.5 113.05L203.75 111.03C202.15 109.85 201.01 108.06 201.02 106.75C201.02 105.51 201.36 104.02 201.77 103.43C202.17 102.84 203.4 102.04 204.5 101.66C205.69 101.25 207.41 101.58 208.75 102.49C209.99 103.32 211 104.67 211 105.5C211 106.83 211.61 106.83 216.5 105.5C220.28 104.47 222.47 104.31 223.5 105C224.81 105.87 224.61 107.44 221.96 117.25C220.29 123.44 219.05 130.04 219.21 131.92C219.37 133.81 220.06 135.49 220.75 135.67C221.44 135.85 223.71 133.41 225.8 130.25C228.02 126.9 229.9 122.62 230.3 120C230.68 117.53 232.26 113.47 233.8 111C235.39 108.45 238.1 105.77 240.05 104.82C241.95 103.9 243.95 103.38 244.5 103.68C245.12 104.01 245.02 104.65 244.23 105.36C243.54 105.99 242.96 106.95 242.95 107.5C242.94 108.05 243.74 107.72 244.72 106.78C245.7 105.83 247.96 105.04 249.75 105.03C251.91 105.01 254.03 105.92 256.06 107.75C257.75 109.26 259.62 112.08 260.23 114C260.83 115.92 261.28 119.75 261.12 127.5L264.06 124.25C265.68 122.46 267.45 121 268 121C268.55 121 269.23 121.45 269.5 122C269.77 122.55 268.65 124.58 267 126.5C265.35 128.43 263.32 130 262.5 130C261.68 130 259.72 131.91 258.16 134.25C256.6 136.59 253.67 139.29 251.66 140.25C249.65 141.21 247.1 142 246 142C244.9 142 242.54 141.4 240.75 140.67C238.96 139.93 236.26 137.91 234.75 136.17C233.24 134.43 232 132.32 232 131.5C232 130.68 231.55 130 231 130C230.45 130 229.38 131.24 228.63 132.75C227.87 134.26 225.62 136.96 223.63 138.75C221.63 140.54 219.21 142 218.25 142.01C217.29 142.01 215.49 141.34 214.25 140.51C212.88 139.59 211.75 137.53 211.37 135.25C210.96 132.83 211.36 129.55 212.49 126C213.45 122.97 215.54 117.91 217.12 114.75C218.7 111.59 219.89 108.77 219.75 108.49C219.61 108.21 217.47 109.08 215 110.41C211.34 112.39 210.25 113.65 209.14 117.17C208.39 119.55 206.74 123.53 205.48 126C204.22 128.47 201.79 132.41 200.09 134.75C198.39 137.09 195.54 139.72 193.75 140.6C191.96 141.47 189.49 141.92 188.25 141.6C187.01 141.27 185.21 139.54 184.25 137.75C182.79 135.04 182.54 132.29 182.75 121.25C182.96 110.03 182.77 108 181.5 108C180.67 108 180 107.11 180 106C180 104.75 180.66 104.01 181.75 104.02C182.84 104.04 183.75 103.01 184.17 101.27C184.54 99.75 185.16 95.69 185.54 92.25C186.23 86.05 186.26 86 189.37 86.02ZM245.24 87.31L251.12 91.66C254.36 94.04 257.23 96.45 257.5 97C257.77 97.55 257.55 98.22 257 98.5C256.45 98.78 253.75 97.88 246 94L240.51 96.75C236.8 98.61 234.68 99.18 233.95 98.5C233.21 97.81 234.79 95.93 239.06 92.41L245.24 87.31Z" />
		<path id="Path 9" class="shp1" d="M79.33 93.72C78.69 95.8 77.61 100.2 76.93 103.5C76.26 106.8 75.69 114.9 75.66 121.5C75.62 130.83 76 134.39 77.37 137.5C79.01 141.24 79.2 141.37 80.31 139.5C81.1 138.17 81.62 130.08 81.87 115.5C82.07 103.4 81.85 92.7 81.37 91.72C80.65 90.25 80.3 90.59 79.33 93.72Z" />
		<path id="Path 10" class="shp2" d="M135.95 92.8C134.46 94.03 134.11 95.03 134.69 96.39C135.14 97.43 136.18 98.61 137 99.02C137.82 99.43 139.51 99.37 140.75 98.88C142.41 98.23 142.93 97.3 142.75 95.36C142.59 93.66 141.7 92.43 140.26 91.91C138.69 91.34 137.4 91.61 135.95 92.8ZM409.98 92.09C408.57 92.6 407.72 93.65 407.83 94.72C407.94 95.7 408.36 96.98 408.77 97.57C409.17 98.16 410.29 98.95 411.25 99.32C412.3 99.73 413.86 99.3 415.16 98.25C416.57 97.1 417.08 95.9 416.66 94.75C416.29 93.79 415.17 92.6 414.16 92.12C413.13 91.63 411.28 91.62 409.98 92.09Z" />
		<path id="Path 11" class="shp3" d="M296.36 106C296.36 111.22 296.53 113.25 296.74 110.5C296.94 107.75 296.94 103.47 296.74 101C296.53 98.53 296.36 100.78 296.36 106Z" />
		<path id="Path 12" class="shp2" d="M155 102C153.9 103.1 153 104.45 153 105C153 105.55 153.73 107.69 154.62 109.75C156.23 113.48 156.22 113.54 152.28 121.5C150.1 125.9 147.01 130.99 145.41 132.81C143.34 135.17 142.21 135.8 141.5 135C140.93 134.37 140.59 129.06 140.71 122.69C140.82 116.54 141.16 110.04 141.46 108.25C141.88 105.72 141.61 104.89 140.25 104.49C139.29 104.2 137.49 104.65 136.25 105.49C135.01 106.32 134 107.67 134 108.5C134 109.33 133.07 112.81 131.94 116.25C130.11 121.82 130.05 122.58 131.44 123.25C132.55 123.78 133 125.46 133 129C133 131.75 133.59 135.46 134.32 137.25C135.22 139.48 136.56 140.74 138.57 141.28C140.61 141.82 142.18 141.59 143.75 140.53C144.99 139.69 147.1 137.54 148.43 135.75C149.77 133.96 152.81 128.57 155.18 123.77L159.5 115.05C168.03 121.67 171.06 124.92 171.75 126.54C172.56 128.47 172.7 130.54 172.16 132.5C171.69 134.15 170.1 136.4 168.61 137.5C166.11 139.35 165.7 139.38 163.2 137.96C160.98 136.7 160.5 135.72 160.5 132.46C160.5 128.97 160.89 128.32 163.73 127C165.5 126.17 166.97 124.94 166.98 124.25C166.99 123.51 165.68 122.99 163.75 122.97C161.96 122.95 159.26 123.85 157.75 124.97C156.18 126.12 154.78 128.29 154.5 130C154.22 131.67 154.67 134.33 155.5 136C156.39 137.77 158.53 139.66 160.75 140.6C163.18 141.64 165.73 141.98 168 141.57C169.93 141.22 172.63 140.12 174 139.12C175.38 138.12 177.29 135.65 178.25 133.65C179.21 131.64 180 128.2 180 126C180 123.26 179.26 121.14 177.66 119.25C176.38 117.74 172.33 114.92 168.67 113C162.24 109.62 162.03 109.39 162.51 106.25C162.79 104.41 162.46 102.33 161.75 101.46C161.06 100.61 159.71 99.93 158.75 99.96C157.79 99.98 156.1 100.9 155 102Z" />
		<path id="Path 13" class="shp3" d="M82.39 116.5C82.4 124.2 82.55 127.13 82.74 123C82.93 118.88 82.93 112.58 82.74 109C82.55 105.42 82.39 108.8 82.39 116.5Z" />
		<path id="Path 14" class="shp1" d="M348.42 110.75C347.05 112.26 345.66 115.08 345.33 117C345.01 118.92 344.91 122.85 345.12 125.71C345.4 129.57 346.15 131.61 348 133.56C349.99 135.65 350.91 135.99 352.5 135.23C353.6 134.7 355.36 132.52 356.42 130.38C357.47 128.25 358.55 124.47 358.8 122C359.06 119.53 358.99 116.26 358.64 114.75C358.29 113.24 357.1 111.1 356 110C354.9 108.9 353.3 108 352.45 108C351.6 108 349.79 109.24 348.42 110.75ZM502.9 109.08C502.02 109.64 500.55 111.43 499.65 113.05C498.59 114.94 498 118.33 498 122.5C498 126.08 498.61 130.24 499.36 131.75C500.11 133.26 501.57 134.87 502.61 135.31C504.05 135.93 505.16 135.4 507.25 133.06C508.76 131.38 510.5 128.09 511.1 125.75C511.71 123.41 511.95 119.47 511.64 117C511.29 114.2 510.21 111.64 508.79 110.22C507.53 108.97 506.05 107.97 505.5 108C504.95 108.04 503.78 108.52 502.9 109.08ZM246.51 111.75C246.18 112.71 246.26 115.3 246.67 117.5C247.09 119.7 248.23 122.51 249.21 123.75C250.2 124.99 251.56 126 252.25 126.01C253.2 126.02 253.33 124.39 252.78 119.26C252.38 115.54 251.48 111.92 250.78 111.21C250.08 110.49 248.96 109.93 248.3 109.96C247.65 109.98 246.84 110.79 246.51 111.75ZM441.51 111.75C441.18 112.71 441.26 115.3 441.67 117.5C442.09 119.7 443.23 122.51 444.21 123.75C445.2 124.99 446.56 126 447.25 126.01C448.2 126.02 448.33 124.39 447.78 119.26C447.38 115.54 446.48 111.92 445.78 111.21C445.08 110.49 443.96 109.93 443.3 109.96C442.65 109.98 441.84 110.79 441.51 111.75ZM91 117.75C91 121.19 90.66 124.77 90.25 125.7C89.66 127.03 90.38 126.85 93.5 124.88C95.7 123.49 98.06 122.05 98.75 121.68C99.45 121.3 100.22 121.66 100.5 122.5C100.78 123.33 99.88 125.35 98.5 127C97.13 128.65 96.01 131.24 96.03 132.75C96.05 134.26 96.61 136.21 97.28 137.09C97.95 137.96 99.51 139.2 100.75 139.84C102.13 140.55 104.46 140.72 106.75 140.29C108.85 139.89 111.88 138.24 113.64 136.54C115.47 134.77 117.27 131.63 117.95 129C118.62 126.44 118.81 123.21 118.38 121.5C117.96 119.85 116.47 117.23 115.06 115.69C113.65 114.14 111.15 112.43 109.5 111.89C107.85 111.36 103.01 111.05 98.75 111.21L91 111.5L91 117.75ZM239.54 115.5C239.09 117.7 238.98 122.42 239.3 126C239.67 130.13 240.57 133.41 241.79 135C242.84 136.38 244.78 137.65 246.1 137.82C247.7 138.04 249.07 137.37 250.23 135.82C251.18 134.55 251.97 133.05 251.99 132.5C252.01 131.95 250.67 130.71 249.01 129.75C247.36 128.79 245.02 126.54 243.82 124.75C242.62 122.96 241.34 119.25 240.99 116.5L240.35 111.5L239.54 115.5Z" />
		<path id="Path 15" class="shp0" d="M371.18 116.18L371.08 120.5C373.77 115.43 373.79 114.75 372.64 113.43C371.47 112.07 371.27 112.43 371.18 116.18Z" />
		<path id="Path 16" class="shp1" d="M434.54 115.5C434.09 117.7 433.98 122.42 434.3 126C434.67 130.13 435.57 133.41 436.79 135C437.84 136.38 439.78 137.65 441.1 137.82C442.7 138.04 444.07 137.37 445.23 135.82C446.18 134.55 446.97 133.05 446.99 132.5C447.01 131.95 445.67 130.71 444.01 129.75C442.36 128.79 440.02 126.54 438.82 124.75C437.62 122.96 436.34 119.25 435.99 116.5L435.35 111.5L434.54 115.5Z" />
		<path id="Path 17" class="shp0" d="M195 119.5C195 123.08 195.34 125.82 195.75 125.61C196.16 125.4 197.63 122.89 199 120.05C201.16 115.58 201.3 114.75 200 113.95C199.18 113.45 197.71 113.02 196.75 113.02C195.26 113 195 113.97 195 119.5ZM349.94 114.93C349.32 116 348.87 119.49 348.93 122.68C348.98 125.88 349.36 129.09 349.77 129.81C350.31 130.78 350.96 130.45 352.25 128.56C353.21 127.15 354.28 124.09 354.63 121.75C355 119.27 354.79 116.56 354.13 115.25C353.51 114.01 352.56 113 352.03 113C351.49 113 350.55 113.87 349.94 114.93ZM502.94 114.93C502.32 116 501.87 119.49 501.93 122.68C501.98 125.88 502.36 129.09 502.77 129.81C503.31 130.78 503.96 130.45 505.25 128.56C506.21 127.15 507.28 124.09 507.63 121.75C508 119.27 507.79 116.56 507.13 115.25C506.51 114.01 505.56 113 505.03 113C504.49 113 503.55 113.87 502.94 114.93Z" />
		<path id="Path 18" class="shp2" d="M193.94 121C193.94 125.13 194.29 128.13 194.72 127.67C195.15 127.22 195.35 124.07 195.17 120.67C194.99 117.28 194.64 114.28 194.39 114C194.15 113.72 193.94 116.88 193.94 121Z" />
		<path id="Path 19" class="shp0" d="M95.05 116.12C94.25 116.82 93.69 117.65 93.81 117.95C93.93 118.25 95.48 118.36 97.26 118.18C99.4 117.97 101.11 118.48 102.29 119.68C103.28 120.68 104.29 122.29 104.54 123.25C104.81 124.26 103.72 126.49 102 128.5C100.35 130.43 99 132.45 99 133C99 133.55 100.01 134.49 101.25 135.08C102.97 135.91 104.38 135.79 107.25 134.58C109.85 133.49 111.46 131.92 112.5 129.5C113.33 127.57 114 125.1 114 124C114 122.9 112.76 120.59 111.25 118.86C108.87 116.15 107.69 115.67 102.5 115.28C98.46 114.98 96.03 115.25 95.05 116.12Z" />
		<path id="Path 20" class="shp3" d="M190.32 123C190.32 126.58 190.5 127.93 190.72 126C190.95 124.08 190.95 121.15 190.72 119.5C190.5 117.85 190.32 119.42 190.32 123ZM497.31 122.5C497.32 125.8 497.5 126.92 497.72 125C497.94 123.08 497.94 120.38 497.71 119C497.49 117.63 497.3 119.2 497.31 122.5Z" />
		<path id="Path 21" class="shp0" d="M481.92 120.55C480.59 121.31 478.6 121.95 477.5 121.98C476.4 122.01 474.93 121.46 474.23 120.77C473.21 119.74 472.97 120.27 472.97 123.5C472.97 125.7 473.54 128.34 474.23 129.37C475.28 130.92 475.89 131.05 477.75 130.12C478.99 129.51 481.24 126.96 482.75 124.47C484.26 121.97 485.24 119.76 484.92 119.55C484.61 119.34 483.26 119.79 481.92 120.55Z" />
		<path id="Path 22" class="shp3" d="M519.34 127.5C519.35 131.9 519.52 133.47 519.73 131C519.94 128.53 519.94 124.92 519.73 123C519.51 121.08 519.34 123.1 519.34 127.5Z" />
		<path id="Path 23" class="shp0" d="M164.11 131.5C163.39 132.47 163.35 133.18 164 133.5C164.55 133.78 165.68 133.78 166.5 133.5C167.32 133.22 168 132.32 168 131.5C168 130.68 167.38 130 166.61 130C165.85 130 164.72 130.68 164.11 131.5Z" />
	</g>
</svg>